<svg width="272" height="57" fill="none" xmlns="http://www.w3.org/2000/svg"><g clip-path="url(#clip0)" fill="#CFCFCF"><path d="M41.345 18.976H22.417v3.387h-8.565v-9.688h27.493v6.3zM37.08 31.65H13.852v-6.302H37.08v6.302zm4.265 12.674H13.852v-9.688h8.565v3.387h18.928v6.301zM41.59 0H13.605C6.098 0 0 6.301 0 14.059v28.919c0 7.758 6.098 14.058 13.605 14.058h27.986c7.508 0 13.606-6.3 13.606-14.058v-28.92C55.16 6.302 49.099 0 41.59 0zm108.456 21.161h-11.279v2.622h-5.111v-7.466h16.354v4.844h.036zm-2.538 9.761h-13.817v-4.844h13.817v4.844zm2.538 9.797h-16.355v-7.466h5.111v2.622h11.279v4.844h-.035zm112.296-14.86c-.74.583-1.198 1.384-1.445 2.368-.141.473-.211 1.275-.282 2.367 0 .11.035.146.141.146h8.741c.106 0 .141-.037.141-.146-.035-1.056-.105-1.784-.211-2.222-.247-1.056-.74-1.857-1.516-2.476-.74-.62-1.692-.91-2.855-.91-1.057 0-1.974.29-2.714.873zM272 31.395v1.13c0 .218-.106.364-.353.364h-10.891c-.106 0-.141.036-.141.145.035 1.275.106 2.113.212 2.477.246 1.056.775 1.858 1.586 2.477.81.619 1.833.91 3.101.91.952 0 1.763-.218 2.503-.655.705-.437 1.269-1.056 1.692-1.894.141-.219.282-.255.458-.146l1.304.801c.176.11.212.292.141.474a5.984 5.984 0 01-2.538 2.622c-1.128.656-2.396.947-3.877.947-1.586-.036-2.925-.4-4.018-1.165s-1.868-1.821-2.326-3.205c-.388-1.13-.599-2.732-.599-4.808 0-.983 0-1.785.035-2.367.035-.62.106-1.166.247-1.64.387-1.493 1.163-2.731 2.291-3.605 1.163-.91 2.537-1.348 4.194-1.348 2.044 0 3.63.547 4.723 1.603s1.798 2.586 2.044 4.516c.141.546.212 1.384.212 2.367zm-16.46-6.264h-3.807c-.106 0-.141.036-.141.146v10.27c0 1.13.247 1.895.74 2.368.494.474 1.234.692 2.291.692h.846c.212 0 .353.11.353.364v1.42c0 .22-.106.365-.353.365-.282.036-.67.036-1.234.036-1.621 0-2.855-.328-3.665-.947-.846-.619-1.234-1.784-1.234-3.496V25.277c0-.11-.035-.146-.141-.146h-2.115c-.211 0-.352-.11-.352-.364v-1.348c0-.218.106-.364.352-.364h2.045c.105 0 .141-.037.141-.146v-4.006c0-.219.105-.364.352-.364h1.657c.211 0 .352.109.352.364v4.043c0 .109.035.145.141.145h3.772c.211 0 .352.11.352.365v1.347c-.035.219-.141.328-.352.328zm-14.416 15.188v-16.9c0-.218.105-.364.352-.364h1.727c.212 0 .353.11.353.364v16.9c0 .218-.106.364-.353.364h-1.762c-.212 0-.317-.11-.317-.364zm-.071-20.98c-.352-.363-.529-.837-.529-1.383 0-.583.177-1.056.529-1.42.353-.365.811-.547 1.339-.547.529 0 .987.182 1.34.546.352.365.529.838.529 1.42 0 .547-.177 1.02-.529 1.385-.353.364-.811.546-1.34.546-.528 0-.986-.182-1.339-.546zm-17.412 19.887c-1.48-1.165-2.22-2.768-2.22-4.735V33.4c0-.219.105-.364.352-.364h1.657c.211 0 .352.109.352.364v.947c0 1.347.529 2.44 1.621 3.241 1.093.838 2.574 1.239 4.477 1.239 1.727 0 3.031-.365 3.947-1.13.882-.764 1.34-1.748 1.34-3.023 0-.8-.212-1.493-.635-2.076-.423-.582-1.057-1.129-1.903-1.639-.881-.51-2.079-1.092-3.666-1.784-1.691-.692-2.996-1.311-3.912-1.821a6.801 6.801 0 01-2.256-2.004c-.564-.837-.846-1.857-.846-3.132 0-1.966.67-3.46 1.974-4.552 1.304-1.093 3.102-1.603 5.393-1.603 2.502 0 4.441.62 5.886 1.821 1.445 1.202 2.15 2.805 2.15 4.808v.765c0 .218-.106.364-.352.364h-1.692c-.212 0-.353-.11-.353-.364v-.62c0-1.347-.528-2.44-1.515-3.314-1.022-.874-2.432-1.275-4.265-1.275-1.586 0-2.82.328-3.666 1.02-.846.656-1.269 1.64-1.269 2.914 0 .837.212 1.53.635 2.076.423.546 1.022 1.02 1.797 1.42.776.401 1.974.947 3.596 1.567 1.656.692 2.96 1.347 3.947 1.966.987.62 1.798 1.348 2.432 2.222.635.874.917 1.93.917 3.169 0 1.966-.705 3.496-2.08 4.662-1.41 1.165-3.313 1.748-5.78 1.748-2.573-.037-4.582-.62-6.063-1.785zm-11.244-12.602a.392.392 0 01-.282.11h-3.242c-.106 0-.177.072-.177.182v7.393c0 .765.141 1.348.459 1.712.317.364.775.546 1.48.546h1.128c.106 0 .211.037.282.11.07.072.106.182.106.291v3.314c0 .255-.141.401-.388.438-.952.036-1.621.072-2.009.072-1.868 0-3.243-.328-4.194-.947-.917-.655-1.41-1.82-1.41-3.605v-9.324c0-.11-.071-.183-.177-.183h-1.903a.394.394 0 01-.282-.109.424.424 0 01-.106-.291v-3.096c0-.11.036-.218.106-.291a.393.393 0 01.282-.11h1.903c.106 0 .177-.072.177-.182v-4.152c0-.109.035-.218.105-.291a.395.395 0 01.282-.11h3.772c.106 0 .211.037.282.11.07.073.105.182.105.291v4.152c0 .11.071.182.177.182h3.242c.106 0 .212.037.282.11a.42.42 0 01.106.291v3.096a.42.42 0 01-.106.291zm-13.957-2.367c1.092 1.129 1.656 2.695 1.656 4.625v11.4c0 .11-.035.219-.105.292a.395.395 0 01-.282.11h-3.948a.392.392 0 01-.282-.11.42.42 0 01-.106-.292V29.866c0-.91-.247-1.676-.775-2.258-.494-.583-1.163-.875-2.009-.875-.846 0-1.516.292-2.009.875-.494.582-.776 1.347-.776 2.258v10.416a.42.42 0 01-.106.292.392.392 0 01-.282.11h-3.947a.392.392 0 01-.282-.11.42.42 0 01-.106-.292V23.237a.42.42 0 01.106-.291.392.392 0 01.282-.11h3.947c.106 0 .212.037.282.11a.42.42 0 01.106.291v1.202c0 .073.035.11.071.146.035.036.07 0 .105-.037.917-1.347 2.291-2.003 4.124-2.003 1.798 0 3.243.546 4.336 1.712zm-26.365 4.553c-.106.291-.176.655-.247 1.129 0 .109.071.182.177.182h5.815c.141 0 .176-.073.141-.182a22.414 22.414 0 00-.176-.984c-.211-.692-.564-1.238-1.057-1.602-.494-.4-1.128-.583-1.868-.583-1.41-.037-2.362.656-2.785 2.04zm10.786 4.079c-.036.291-.177.4-.423.4h-10.433c-.141 0-.177.073-.141.183.07.473.176.91.387 1.384.599 1.31 1.763 1.966 3.56 1.966 1.445-.036 2.573-.619 3.419-1.82.106-.146.176-.22.317-.22.071 0 .141.037.247.146l2.432 2.477c.106.11.176.219.176.328 0 .036-.035.146-.141.291-.74.947-1.692 1.676-2.855 2.222a9.439 9.439 0 01-3.842.801c-1.938 0-3.559-.437-4.899-1.347-1.339-.91-2.291-2.186-2.89-3.788-.458-1.166-.705-2.695-.705-4.553 0-1.275.176-2.404.493-3.387.529-1.64 1.41-2.95 2.714-3.934 1.305-.983 2.82-1.457 4.583-1.457 2.255 0 4.053.656 5.392 2.004 1.375 1.347 2.186 3.132 2.468 5.39.141.838.176 1.821.141 2.914zm-27.035 7.466l-5.393-17.081c-.035-.037-.035-.11-.035-.183 0-.218.106-.327.388-.327h4.335c.247 0 .388.109.458.364l2.75 10.562c.035.073.07.11.105.11.036 0 .071-.037.106-.11l2.749-10.562c.071-.219.212-.364.459-.364l4.335.072c.141 0 .247.037.317.11.071.072.071.218.036.364l-5.358 17.009c-.071.218-.211.364-.423.364h-4.406c-.211.036-.352-.11-.423-.328zM113.847 25.86c-.74.583-1.198 1.384-1.445 2.368-.141.473-.211 1.275-.282 2.367 0 .11.035.146.141.146h8.741c.106 0 .141-.037.141-.146-.035-1.056-.105-1.784-.211-2.222-.247-1.056-.74-1.857-1.516-2.476-.74-.62-1.692-.91-2.855-.91-1.092 0-2.009.29-2.714.873zm9.623 5.536v1.13c0 .218-.106.364-.353.364h-10.891c-.106 0-.141.036-.141.145.035 1.275.106 2.113.211 2.477.247 1.056.776 1.858 1.586 2.477.811.619 1.833.91 3.102.91.952 0 1.763-.218 2.503-.655.705-.437 1.269-1.056 1.692-1.894.141-.219.282-.255.458-.146l1.304.801c.176.11.211.292.141.474a5.984 5.984 0 01-2.538 2.622c-1.128.656-2.432.947-3.877.947-1.586-.036-2.926-.4-4.018-1.165-1.093-.765-1.868-1.821-2.326-3.205-.388-1.13-.6-2.732-.6-4.808 0-.983 0-1.785.036-2.367.035-.62.105-1.166.246-1.64.388-1.493 1.163-2.731 2.291-3.605 1.163-.91 2.538-1.348 4.195-1.348 2.044 0 3.63.547 4.723 1.603 1.092 1.056 1.797 2.586 2.044 4.516.176.546.212 1.384.212 2.367zm-18.963-6.92c1.057 1.093 1.586 2.55 1.586 4.371V40.32c0 .218-.106.364-.353.364h-1.727c-.211 0-.352-.11-.352-.364V29.356c0-1.275-.388-2.331-1.128-3.132-.74-.802-1.727-1.202-2.925-1.202-1.234 0-2.221.4-2.996 1.165-.776.801-1.128 1.821-1.128 3.096v11.072c0 .219-.106.364-.353.364h-1.727c-.211 0-.352-.109-.352-.364V16.681c0-.218.105-.364.352-.364h1.727c.212 0 .353.11.353.364v8.268c0 .036 0 .073.035.11.035.036.07 0 .07-.037.987-1.457 2.503-2.15 4.547-2.15 1.868-.036 3.313.51 4.371 1.603zm-14.592-7.794v1.493c0 .219-.106.365-.353.365h-6.591c-.106 0-.141.036-.141.145v21.671c0 .219-.106.364-.352.364H80.75c-.211 0-.352-.109-.352-.364v-21.67c0-.11-.035-.146-.141-.146h-6.345c-.211 0-.352-.11-.352-.365v-1.493c0-.218.106-.364.352-.364h15.58c.282.036.423.146.423.364z"/></g><defs><clipPath id="clip0"><path fill="#fff" d="M0 0h272v57H0z"/></clipPath></defs></svg>