<svg width="677" height="995" fill="none" xmlns="http://www.w3.org/2000/svg"><path d="M104.946 175.403H17.925l43.51-66.49 43.511 66.49zm427.907 474.629H17.924L275.39 256.263l257.464 393.769z" fill="#fff" stroke="#000"/><path d="M159.874 288.787L35.239 480.299h249.269L159.874 288.787zm151.002 75.672l-3.565 2.327 133.638 204.836 3.566-2.326-133.639-204.837z" fill="#313335"/><path d="M292.151 369.764L156.13 571.883l1.962 1.321 136.021-202.119-1.962-1.321zm-10.557-15.707L145.572 556.176l1.963 1.321 136.021-202.119-1.962-1.321zm-9.884-15.863L135.713 540.338l1.962 1.32 135.997-202.144-1.962-1.32zm-10.164-15.441L125.549 524.896l1.962 1.321 135.997-202.144-1.962-1.32zm173.02 59.676L621.102 97.655H248.03l186.536 284.774z" fill="#FFF735"/><path d="M502.982 0l-39.763 60.814h79.526L502.982 0zm112.453 24.126L380.037 387.22l4.416 2.863L619.851 26.989l-4.416-2.863z" fill="#313335"/><path d="M803.081 994.53L446.018 435.316 725.357 30.53l364.663 565.063L803.081 994.53z" fill="#E9E9EB"/><path d="M17.313 148.546L34.817 122H0l17.313 26.546z" fill="#FFF735"/></svg>