<svg width="60" height="81" fill="none" xmlns="http://www.w3.org/2000/svg"><path d="M19.259 62.731s-3.099 1.785 2.205 2.389c6.425.726 9.71.622 16.79-.705 0 0 1.861 1.156 4.461 2.157-15.873 6.738-35.923-.39-23.456-3.84zM17.32 53.94s-3.476 2.547 1.832 3.09c6.863.702 12.284.76 21.663-1.03 0 0 1.297 1.303 3.337 2.016-19.191 5.558-40.567.438-26.832-4.077zm16.35-14.915c3.912 4.46-1.027 8.473-1.027 8.473s9.931-5.078 5.37-11.436c-4.26-5.93-7.526-8.876 10.158-19.033 0 0-27.758 6.866-14.5 21.996z" fill="#fff"/><path d="M54.664 69.235s2.293 1.871-2.525 3.319c-9.162 2.749-38.134 3.579-46.182.11-2.893-1.247 2.533-2.977 4.24-3.34 1.78-.382 2.796-.311 2.796-.311-3.217-2.245-20.796 4.408-8.929 6.313 32.363 5.198 58.994-2.34 50.6-6.091zM20.749 44.83s-14.737 3.466-5.219 4.725c4.02.533 12.03.412 19.493-.207 6.098-.51 12.222-1.593 12.222-1.593s-2.15.912-3.706 1.965C28.574 53.618-.335 51.804 7.988 47.817c7.038-3.37 12.76-2.987 12.76-2.987zm26.436 14.635c15.212-7.83 8.178-15.354 3.269-14.34-1.203.248-1.74.463-1.74.463s.447-.693 1.3-.993c9.712-3.382 17.182 9.974-3.135 15.264 0 0 .235-.208.306-.395zM38.013.626s8.425 8.347-7.99 21.183c-13.164 10.296-3.002 16.167-.006 22.874-7.684-6.866-13.322-12.91-9.54-18.536C26.03 17.889 41.412 13.885 38.014.627z" fill="#fff"/><path d="M22.244 80.68c14.602.926 37.025-.513 37.556-7.357 0 0-1.02 2.595-12.068 4.655-12.463 2.323-27.834 2.052-36.951.563 0 0 1.866 1.53 11.463 2.14z" fill="#fff"/></svg>