<svg width="194" height="52" fill="none" xmlns="http://www.w3.org/2000/svg"><path d="M46.947 52a1.155 1.155 0 01-1.001-.572l-8.804-14.846-16.464 4.527a1.16 1.16 0 01-.75-.07 1.17 1.17 0 01-.55-.52L.137 3.952a1.187 1.187 0 01.354-1.515c.153-.11.33-.18.517-.206L17.343.011A1.153 1.153 0 0118.5.57l19.703 33.274 22.915-6.302-7.64-10.91a1.185 1.185 0 01.65-1.826l10.72-2.563a1.152 1.152 0 011.176.408l9.278 11.713a1.183 1.183 0 01-.603 1.873l-9.744 2.687 8.531 12.133a1.185 1.185 0 01-.566 1.793l-25.604 9.079a1.153 1.153 0 01-.37.072zm-7.473-16.063l7.98 13.455 23.254-8.23-8.12-11.576-23.114 6.35zM2.98 4.323l18.006 34.263 14.943-4.1L16.9 2.446 2.979 4.324zM56.415 16.7l7.164 10.188 8.888-2.444-7.732-9.736-8.32 1.992zm31.143-3.557h2.328v25.245h-2.32l-.008-25.245zm25.076 7.032v18.213h-2.288v-3.151a9.984 9.984 0 01-3.27 2.695 9.046 9.046 0 01-5.55.758 9.104 9.104 0 01-4.945-2.658 9.409 9.409 0 01-2.04-3.131 9.49 9.49 0 01-.666-3.689 9.326 9.326 0 01.683-3.648 9.242 9.242 0 012.048-3.081 8.9 8.9 0 013.006-2.095 8.818 8.818 0 013.584-.7 8.445 8.445 0 014.016.955 9.175 9.175 0 013.154 2.86v-3.331l2.268.003zm-9.261 1.811a6.944 6.944 0 00-3.586.972 7.047 7.047 0 00-2.591 2.688 7.453 7.453 0 000 7.358 7.144 7.144 0 002.618 2.731 6.786 6.786 0 003.529.978 7.178 7.178 0 003.604-.97 6.741 6.741 0 002.618-2.627 7.559 7.559 0 00.919-3.748 7.305 7.305 0 00-.496-2.855 7.25 7.25 0 00-1.564-2.43 6.81 6.81 0 00-2.309-1.585 6.754 6.754 0 00-2.743-.517l.001.005zm13.599-1.81h2.368v2.661a8.617 8.617 0 012.239-2.348 4.381 4.381 0 012.45-.78 4.197 4.197 0 012.06.622l-1.215 1.992a3.194 3.194 0 00-1.254-.317 3.334 3.334 0 00-2.237.962 6.109 6.109 0 00-1.648 2.986c-.274 1.038-.411 3.135-.411 6.291v6.163h-2.368l.016-18.233zm29.016 0v18.212h-2.285v-3.151a9.998 9.998 0 01-3.271 2.695 9.046 9.046 0 01-5.55.758 9.104 9.104 0 01-4.944-2.658 9.41 9.41 0 01-2.04-3.131 9.492 9.492 0 01-.667-3.689 9.29 9.29 0 012.735-6.73 8.905 8.905 0 013.006-2.095 8.815 8.815 0 013.584-.699 8.445 8.445 0 014.016.955 9.166 9.166 0 013.154 2.86v-3.331l2.262.003zm-9.26 1.81a6.943 6.943 0 00-3.586.972 7.044 7.044 0 00-2.592 2.688 7.453 7.453 0 000 7.358 7.148 7.148 0 002.619 2.731 6.785 6.785 0 003.529.978 7.172 7.172 0 003.603-.97 6.744 6.744 0 002.619-2.627 7.559 7.559 0 00.919-3.748 7.313 7.313 0 00-.492-2.865 7.25 7.25 0 00-1.566-2.438 6.82 6.82 0 00-2.308-1.584 6.759 6.759 0 00-2.741-.518l-.004.023zm12.776-1.81h2.472l6.047 13.274 5.982-13.275h2.472l-8.239 18.215h-.412l-8.322-18.215zm35.657 12.169l1.97 1.038a10.752 10.752 0 01-2.219 3.082 8.804 8.804 0 01-2.834 1.782 9.787 9.787 0 01-3.562.612c-2.938 0-5.237-.966-6.896-2.898a9.912 9.912 0 01-2.472-6.604 9.714 9.714 0 012.104-6.157 8.63 8.63 0 013.155-2.605 8.514 8.514 0 013.987-.843 8.802 8.802 0 014.102.863 8.91 8.91 0 013.254 2.668c1.304 1.666 1.961 3.749 1.97 6.248h-16.219a7.47 7.47 0 002.006 5.2 6.398 6.398 0 002.182 1.529c.825.349 1.714.52 2.608.5.914 0 1.821-.163 2.678-.483a7.141 7.141 0 002.212-1.283 10.897 10.897 0 001.972-2.611l.002-.038zm0-4.89a7.788 7.788 0 00-1.351-2.993 6.398 6.398 0 00-2.343-1.807 7.121 7.121 0 00-3.052-.689 6.549 6.549 0 00-4.558 1.724c-.928.846-1.63 2.095-2.105 3.75l13.409.015zm6.519-14.292H194v25.245h-2.32V13.162z" fill="#fff"/></svg>