<svg width="225" height="65" fill="none" xmlns="http://www.w3.org/2000/svg"><g clip-path="url(#clip0)" fill-rule="evenodd" clip-rule="evenodd" fill="#fff"><path d="M209.493 26.92c-.202.04-.405.492-.405.738-.041 1.644-.081 5.998-.081 8.956 0 .082.121.246.243.246.608.041 2.068.082 3.325.082 1.744 0 2.758-.246 3.326-.492 1.459-.74 2.149-2.342 2.149-4.109 0-3.984-2.758-5.504-6.854-5.504-.284-.04-1.094-.04-1.703.082zm10.463 18.361c0-4.066-2.96-6.326-8.313-6.326-.244 0-1.947-.04-2.353.041-.122.041-.283.124-.283.247 0 2.916-.041 7.558.081 9.366.08.78.649 1.89 1.338 2.218.73.41 2.393.493 3.528.493 3.204 0 6.002-1.808 6.002-6.039zm-18.736-20.62c.406 0 1.622.122 4.745.122 2.96 0 5.312-.082 8.192-.082 3.528 0 8.394 1.273 8.394 6.614 0 2.629-1.825 4.724-4.217 5.75-.122.042-.122.124 0 .165 3.406.863 6.407 2.999 6.407 7.024 0 3.944-2.433 6.45-5.961 8.01-2.15.945-4.826 1.274-7.543 1.274-2.069 0-7.624-.246-10.706-.164-.324-.124.284-1.603.567-1.849.731-.041 1.298-.082 2.069-.329 1.095-.287 1.216-.616 1.378-2.3.082-1.438.082-6.532.082-10.146 0-4.97.041-8.339 0-9.982-.041-1.273-.487-1.684-1.379-1.93a71.968 71.968 0 00-2.758-.411c-.203-.206.487-1.603.73-1.767zm-23.399 25.55c.973.78 2.879 1.108 4.583 1.108 2.189 0 4.379-.41 6.488-2.341 2.149-1.971 3.65-5.011 3.65-9.858 0-4.643-1.744-8.422-5.313-10.64-2.027-1.274-4.623-1.807-7.624-1.807-.892 0-1.744.041-2.271.287-.122.083-.405.452-.405.657-.081.822-.081 7.148-.081 10.845 0 3.82 0 9.16.081 9.777 0 .616.283 1.56.892 1.972zm-9.206-25.551c.771 0 3.731.123 5.15.123 2.556 0 4.38-.123 9.206-.123 4.055 0 7.462 1.11 9.895 3.204 2.96 2.588 4.502 6.162 4.502 10.516 0 6.203-2.799 9.777-5.597 11.83-2.798 2.096-6.448 3.328-11.639 3.328-2.757 0-7.502-.082-11.436-.124h-.04c-.203-.369.324-1.807.648-1.848 1.055-.123 1.339-.165 1.866-.37.852-.328 1.014-.78 1.136-2.3.121-2.834.081-6.244.081-10.105 0-2.752.04-8.134-.041-9.86-.121-1.437-.73-1.806-1.947-2.053-.608-.123-1.419-.288-2.554-.41-.163-.288.567-1.561.77-1.808zm-49.069 27.153c-1.014-.124-1.744-.288-2.636-.698-.122-.083-.325-.493-.325-.658-.081-1.438-.081-5.545-.081-8.297 0-2.219-.365-4.15-1.298-5.505-1.095-1.561-2.676-2.465-4.704-2.465-1.784 0-4.177 1.233-6.164 2.958-.041.04-.365.329-.324-.123 0-.452.081-1.356.121-1.972.041-.575-.284-.863-.284-.863-1.297.657-4.947 1.52-6.286 1.643-.972.206-1.216 1.15-.202 1.48h.04c1.095.328 1.825.698 2.393 1.067.405.329.365.78.365 1.15.04 3.081.04 7.805-.081 10.393-.04 1.027-.324 1.397-1.055 1.561l.082-.04c-.568.122-1.014.245-1.704.328-.243.246-.243 1.56 0 1.848.446 0 2.798-.123 4.745-.123 2.677 0 4.056.123 4.745.123.284-.328.365-1.56.203-1.848-.771-.041-1.339-.123-1.866-.288-.73-.165-.933-.534-.973-1.396-.081-2.178-.081-6.779-.081-9.9 0-.863.243-1.274.486-1.52.933-.822 2.434-1.397 3.772-1.397 1.298 0 2.149.411 2.798.945.892.74 1.176 1.807 1.298 2.588.202 1.766.121 5.258.121 8.298 0 1.643-.121 2.054-.729 2.259-.284.123-1.014.288-1.866.37-.284.287-.203 1.56 0 1.848 1.176 0 2.555-.123 4.583-.123 2.514 0 4.136.123 4.785.123.202-.246.284-1.438.122-1.767zm11.233-15.692c-2.149 0-3.488 1.684-3.488 4.313 0 2.67 1.176 5.751 4.502 5.751.567 0 1.622-.247 2.108-.822.771-.739 1.298-2.218 1.298-3.779 0-3.41-1.663-5.463-4.42-5.463zm-.284 18.156c-.811 0-1.379.247-1.744.453-1.703 1.108-2.473 2.176-2.473 3.45 0 1.191.446 2.136 1.419 2.957 1.176 1.027 2.798 1.52 4.866 1.52 4.137 0 5.962-2.26 5.962-4.477 0-1.561-.771-2.588-2.352-3.163-1.136-.493-3.204-.74-5.678-.74zm.284 10.68c-2.474 0-4.258-.533-5.799-1.724-1.501-1.15-2.15-2.876-2.15-4.067 0-.329.082-1.233.812-2.054.445-.493 1.419-1.438 3.731-3.04.081-.04.121-.082.121-.165 0-.082-.081-.164-.162-.204-1.906-.74-2.474-1.931-2.636-2.588v-.083c-.04-.246-.122-.493.243-.74.284-.204.69-.451 1.136-.738.689-.411 1.419-.863 1.865-1.233.081-.082.081-.164.081-.246 0-.083-.081-.165-.162-.206-2.838-.944-4.258-3.08-4.258-6.285 0-2.095.933-3.984 2.595-5.175 1.136-.904 3.975-2.013 5.84-2.013h.122c1.906.04 2.96.451 4.46.986.812.287 1.582.41 2.637.41 1.581 0 2.271-.493 2.838-1.067.041.081.122.287.163.82.04.535-.122 1.315-.528 1.89-.324.452-1.054.781-1.784.781h-.203c-.73-.082-1.055-.164-1.055-.164l-.161.082c-.041.082 0 .164.04.288l.041.082c.081.37.243 1.478.243 1.766 0 3.368-1.338 4.847-2.758 5.956-1.379 1.027-2.96 1.684-4.744 1.849-.041 0-.203 0-.568.04-.203 0-.487.042-.527.042h-.041c-.324.082-1.135.493-1.135 1.19 0 .617.365 1.357 2.108 1.48.365.04.73.04 1.136.082 2.312.164 5.191.37 6.529.822 1.865.698 3.041 2.382 3.041 4.395 0 3.04-2.148 5.874-5.717 7.64-1.744.781-3.488 1.192-5.394 1.192zm23.115-28.63c-.851 0-1.622.204-2.19.615-1.581.986-2.392 2.958-2.392 5.833 0 5.382 2.676 9.161 6.488 9.161 1.136 0 2.028-.329 2.798-.986 1.176-.986 1.785-2.958 1.785-5.71 0-5.34-2.636-8.914-6.488-8.914h-.001zm.73 17.58c-6.894 0-9.367-5.134-9.367-9.94 0-3.368 1.338-5.956 4.014-7.805 1.906-1.191 4.177-1.848 6.205-1.848 5.272 0 8.962 3.82 8.962 9.325 0 3.737-1.46 6.695-4.258 8.502-1.338.904-3.65 1.767-5.556 1.767zm-72.266-17.58c-.852 0-1.622.204-2.19.615-1.581.986-2.393 2.958-2.393 5.833 0 5.382 2.677 9.161 6.49 9.161 1.135 0 2.027-.329 2.797-.986 1.176-.986 1.785-2.958 1.785-5.71 0-5.34-2.596-8.914-6.489-8.914zm.73 17.58c-6.894 0-9.368-5.134-9.368-9.94 0-3.368 1.338-5.956 4.015-7.805 1.906-1.191 4.177-1.848 6.205-1.848 5.272 0 8.962 3.82 8.962 9.325 0 3.737-1.46 6.695-4.258 8.502-1.298.904-3.61 1.767-5.556 1.767zm-46.353-.41c-.08-.123-.162-.493-.121-.945 0-.329.081-.534.121-.616.852-.123 1.298-.247 1.785-.37.81-.205 1.135-.657 1.176-1.684.122-2.464.122-7.148.08-10.393v-.082c0-.37 0-.822-.445-1.15a9.101 9.101 0 00-2.433-1.069c-.365-.122-.609-.328-.568-.574 0-.246.243-.534.77-.616 1.339-.124 4.826-.986 6.205-1.602.081.081.203.329.203.657l-.04.452c-.042.452-.082.986-.082 1.52 0 .164.163.287.324.287a.566.566 0 00.244-.082c2.595-2.054 4.947-2.793 6.164-2.793 1.987 0 3.529.945 4.704 2.916.081.124.163.165.284.165.081 0 .203-.041.243-.123 2.393-1.85 4.786-2.958 6.367-2.958 3.771 0 6.002 2.834 6.002 7.64 0 1.356 0 3.122-.04 4.725 0 1.437-.04 2.752-.04 3.697 0 .204.283.862.729.985.568.288 1.338.41 2.352.575h.04c.082.288-.08 1.356-.242 1.561-.244 0-.609 0-1.014-.04a59.115 59.115 0 00-3.082-.083c-2.515 0-3.812.04-5.07.123-.08-.328-.121-1.314 0-1.56.73-.124 1.095-.248 1.542-.37.81-.247 1.013-.617 1.054-1.685 0-.78.162-7.435-.082-9.037-.242-1.643-1.46-3.574-4.136-3.574-1.014 0-2.595.411-4.136 1.602a.738.738 0 00-.163.411v.041c.163.863.163 1.85.163 3.369v2.67c0 1.848-.041 3.574 0 4.888 0 .904.527 1.109.973 1.274.244.04.405.082.608.123.365.082.73.164 1.298.287.081.165.081.699-.04 1.15-.041.247-.123.37-.163.411-1.378-.04-2.798-.082-4.866-.082-.608 0-1.663.041-2.555.041-.73 0-1.42.041-1.825.041-.04-.082-.122-.37-.122-.822 0-.369.082-.657.163-.739.202-.04.365-.082.568-.082a38.41 38.41 0 001.297-.246c.69-.206.933-.575.973-1.48.122-2.053.244-7.927-.04-9.406-.487-2.383-1.825-3.574-3.975-3.574-1.256 0-2.838.616-4.136 1.603-.203.163-.365.574-.365.944v2.424c0 2.957 0 6.654.04 8.257.041.492.203 1.067 1.136 1.273.203.04.527.123.933.164l.73.123c.081.247.04 1.233-.122 1.561-.405 0-.892-.04-1.46-.04a65.083 65.083 0 00-3.163-.083c-1.42 0-2.433.04-3.244.082-.568-.082-1.014-.082-1.5-.082zm-21.331 9.859l-1.662-.576s.203-8.585-2.84-9.2c-2.027-2.384.326-101.053 7.625-.33 0 0-2.514 1.273-2.96 3.45-.487 2.137-.163 6.656-.163 6.656z"/><path d="M15.404 63.356l-1.662-.576s.203-8.585-2.84-9.2c-2.027-2.384.326-101.053 7.625-.33 0 0-2.514 1.273-2.96 3.45-.487 2.137-.163 6.656-.163 6.656z"/><path d="M16.296 55.058s14.56-9.695 11.152-29.864c-3.284-14.664-11.03-19.47-11.882-21.32C14.634 2.56 13.742.26 13.742.26l.61 40.79c0 .041-1.258 12.488 1.946 14.008"/><path d="M16.296 55.058s14.56-9.695 11.152-29.864c-3.284-14.664-11.03-19.47-11.882-21.32C14.634 2.56 13.742.26 13.742.26l.61 40.79c0 .041-1.258 12.488 1.946 14.008"/><path d="M12.89 55.592S-.777 46.144.034 29.508C.804 12.87 10.457 4.695 12.322 3.218c1.217-1.315 1.257-1.808 1.339-3.123.851 1.85.69 27.646.81 30.685.365 11.708-.648 22.594-1.58 24.812z"/><path d="M12.89 55.592S-.777 46.144.034 29.508C.804 12.87 10.457 4.695 12.322 3.218c1.217-1.315 1.257-1.808 1.339-3.123.851 1.85.69 27.646.81 30.685.365 11.708-.648 22.594-1.58 24.812z"/></g><defs><clipPath id="clip0"><path fill="#fff" d="M0 0h225v65H0z"/></clipPath></defs></svg>