<svg width="95" height="58" fill="none" xmlns="http://www.w3.org/2000/svg"><g clip-path="url(#clip0)"><path d="M46.964 57.833c-.322 0-.622-.086-.9-.235l-2.852-1.687c-.43-.235-.215-.32-.086-.363.579-.192.686-.235 1.286-.576.065-.043.15-.021.215.021l2.187 1.303c.086.042.193.042.257 0l8.555-4.932c.086-.043.13-.128.13-.235v-9.841c0-.107-.044-.192-.13-.235l-8.555-4.91c-.086-.043-.193-.043-.257 0l-8.556 4.91c-.085.043-.128.15-.128.235v9.841c0 .086.043.192.128.235l2.338 1.345c1.265.64 2.058-.107 2.058-.854v-9.713a.26.26 0 01.257-.257h1.094a.26.26 0 01.257.257v9.713c0 1.687-.922 2.669-2.53 2.669-.493 0-.879 0-1.973-.534l-2.25-1.281a1.8 1.8 0 01-.901-1.558v-9.842a1.8 1.8 0 01.9-1.558l8.555-4.932a1.922 1.922 0 011.801 0l8.556 4.932c.557.32.9.918.9 1.558v9.842a1.8 1.8 0 01-.9 1.558l-8.556 4.931c-.278.129-.6.193-.9.193zm2.637-6.768c-3.752 0-4.524-1.708-4.524-3.16a.26.26 0 01.257-.255h1.115c.129 0 .236.085.236.213.172 1.131.665 1.687 2.938 1.687 1.8 0 2.573-.406 2.573-1.367 0-.555-.215-.96-3.024-1.238-2.337-.235-3.795-.747-3.795-2.605 0-1.729 1.458-2.754 3.903-2.754 2.744 0 4.095.94 4.267 2.99a.344.344 0 01-.065.191c-.043.043-.107.086-.171.086h-1.115a.25.25 0 01-.236-.192c-.257-1.174-.922-1.559-2.68-1.559-1.973 0-2.209.684-2.209 1.196 0 .619.279.81 2.938 1.152 2.637.342 3.88.833 3.88 2.669-.02 1.879-1.565 2.946-4.288 2.946zM20.42 19.342c0-.384-.215-.748-.558-.94l-9.091-5.209a1.325 1.325 0 00-.494-.15h-.085a1.03 1.03 0 00-.494.15l-9.09 5.21a1.085 1.085 0 00-.558.939l.02 14.004a.53.53 0 00.279.47.488.488 0 00.536 0l5.403-3.074c.343-.192.558-.555.558-.94v-6.554c0-.384.214-.747.557-.939l2.294-1.324c.172-.106.365-.15.558-.15a.93.93 0 01.536.15l2.294 1.324c.343.192.558.555.558.94v6.553c0 .385.214.748.557.94l5.404 3.074a.525.525 0 00.557 0 .53.53 0 00.279-.47l-.022-14.004zM64.117.064a.592.592 0 00-.536 0 .556.556 0 00-.279.47V14.41a.41.41 0 01-.193.342.412.412 0 01-.386 0L60.45 13.45a1.109 1.109 0 00-1.093 0l-9.092 5.23a1.085 1.085 0 00-.557.94v10.438c0 .385.214.748.557.94l9.092 5.23a1.109 1.109 0 001.093 0l9.092-5.23c.343-.192.557-.555.557-.94V4.035c0-.406-.214-.768-.557-.96L64.118.064zm-.836 26.558c0 .106-.043.192-.13.234l-3.108 1.793a.32.32 0 01-.279 0l-3.109-1.793c-.086-.042-.129-.15-.129-.235v-3.586c0-.107.043-.192.13-.235l3.108-1.793a.319.319 0 01.279 0l3.109 1.793c.086.043.129.15.129.235v3.587zm31.09-3.672c.344-.192.536-.555.536-.94v-2.54c0-.384-.214-.747-.536-.94l-9.027-5.208a1.108 1.108 0 00-1.093 0l-9.091 5.23a1.085 1.085 0 00-.558.94V29.93c0 .385.214.748.558.94l9.026 5.123c.344.192.75.192 1.073 0l5.467-3.03a.53.53 0 00.279-.47.53.53 0 00-.279-.47l-9.134-5.23a.556.556 0 01-.279-.47v-3.267a.53.53 0 01.279-.47l2.852-1.622a.525.525 0 01.557 0l2.852 1.623a.556.556 0 01.279.47v2.561a.53.53 0 00.278.47.525.525 0 00.558 0l5.403-3.138z" fill="#fff"/><path d="M84.659 22.459a.196.196 0 01.214 0l1.737 1.003a.224.224 0 01.107.192v2.007c0 .085-.043.15-.107.192l-1.737 1.003a.196.196 0 01-.214 0l-1.737-1.003a.224.224 0 01-.107-.192v-2.007c0-.085.043-.15.107-.192l1.737-1.003z" fill="#fff"/><mask id="mask0" maskUnits="userSpaceOnUse" x="24" y="13" width="22" height="24"><path d="M35.621 13.364a1.11 1.11 0 00-1.093 0L25.5 18.552a1.065 1.065 0 00-.536.939v10.397c0 .384.214.747.536.939l9.027 5.188a1.11 1.11 0 001.093 0l9.027-5.188c.343-.192.536-.555.536-.94V19.492c0-.384-.214-.747-.536-.94l-9.027-5.187z" fill="#fff"/></mask><g mask="url(#mask0)" fill="#fff"><path d="M35.621 13.364a1.11 1.11 0 00-1.093 0L25.5 18.552a1.065 1.065 0 00-.536.939v10.397c0 .384.214.747.536.939l9.027 5.188a1.11 1.11 0 001.093 0l9.027-5.188c.343-.192.536-.555.536-.94V19.492c0-.384-.214-.747-.536-.94l-9.027-5.187z"/><path d="M44.67 18.552l-9.07-5.188a1.494 1.494 0 00-.28-.107L25.158 30.592c.085.103.186.19.3.257l9.07 5.187c.258.15.558.192.837.107l9.542-17.378a1.125 1.125 0 00-.236-.213z"/><path fill-rule="evenodd" clip-rule="evenodd" d="M44.691 30.827c.257-.15.45-.406.536-.683l-9.95-16.908c-.256-.043-.535-.021-.77.128L25.5 18.53l9.713 17.634c.14-.023.278-.066.407-.128l9.07-5.209z"/><path fill-rule="evenodd" clip-rule="evenodd" d="M44.691 30.827l-9.049 5.188a1.294 1.294 0 01-.407.128l.172.32 10.034-5.785v-.128l-.257-.427a.992.992 0 01-.493.704z"/><path fill-rule="evenodd" clip-rule="evenodd" d="M44.691 30.827l-9.049 5.188a1.294 1.294 0 01-.407.128l.172.32 10.034-5.785v-.128l-.257-.427a.992.992 0 01-.493.704z"/></g></g><defs><clipPath id="clip0"><path fill="#fff" d="M0 0h95v58H0z"/></clipPath></defs></svg>