<svg width="151" height="38" fill="none" xmlns="http://www.w3.org/2000/svg"><path d="M56.59 19.091c0-4.603-1.312-6.966-3.937-7.095a7.398 7.398 0 00-3.057.502c-.792.283-1.325.564-1.605.847v10.987c1.68 1.054 3.17 1.544 4.47 1.467 2.752-.182 4.13-2.415 4.13-6.707zm3.239.192c0 2.338-.549 4.28-1.652 5.823-1.23 1.747-2.933 2.647-5.111 2.696-1.643.052-3.334-.462-5.075-1.54v9.985l-2.816-1.004V13.077c.462-.567 1.057-1.054 1.778-1.466 1.676-.977 3.712-1.48 6.11-1.504l.04.04c2.19-.028 3.879.872 5.065 2.696 1.106 1.673 1.66 3.817 1.66 6.44zm17.211 6.553c0 3.137-.314 5.309-.943 6.517-.631 1.208-1.833 2.172-3.608 2.89-1.439.567-2.995.875-4.665.927l-.465-1.775c1.698-.23 2.893-.462 3.587-.693 1.365-.462 2.301-1.17 2.816-2.12.412-.773.616-2.249.616-4.433v-.734a14.47 14.47 0 01-6.055 1.31c-1.386 0-2.61-.435-3.663-1.31-1.183-.952-1.775-2.16-1.775-3.623v-11.72l2.816-.965v11.798c0 1.26.407 2.23 1.22 2.911.814.681 1.868 1.008 3.159.983 1.29-.028 2.674-.527 4.144-1.503V10.532h2.816v15.304zm10.993 1.812c-.336.027-.644.04-.927.04-1.593 0-2.835-.38-3.722-1.14-.885-.761-1.328-1.812-1.328-3.152V12.304h-1.929v-1.772h1.929V5.827l2.813-1.001v5.706h3.164v1.772H84.87v11.015c0 1.056.283 1.805.85 2.243.487.36 1.26.567 2.314.62v1.466zm17.051-.232h-2.816v-10.87c0-1.106-.259-2.058-.773-2.853-.595-.9-1.421-1.35-2.48-1.35-1.292 0-2.906.681-4.844 2.043v13.03h-2.816V1.433L94.17.546V12.38c1.8-1.31 3.765-1.966 5.9-1.966 1.492 0 2.699.502 3.624 1.503.927 1.002 1.389 2.25 1.389 3.74v11.758zm14.969-8.768c0-1.769-.336-3.23-1.005-4.385-.795-1.408-2.03-2.15-3.7-2.227-3.087.178-4.628 2.39-4.628 6.63 0 1.944.32 3.568.967 4.872.826 1.66 2.065 2.48 3.716 2.452 3.1-.024 4.65-2.47 4.65-7.342zm3.084.018c0 2.518-.644 4.613-1.929 6.286-1.414 1.873-3.368 2.813-5.86 2.813-2.471 0-4.397-.94-5.787-2.813-1.26-1.673-1.888-3.768-1.888-6.286 0-2.366.681-4.356 2.043-5.977 1.438-1.72 3.33-2.582 5.669-2.582 2.338 0 4.243.863 5.709 2.582 1.362 1.62 2.043 3.611 2.043 5.977zm16.145 8.751h-2.816V15.93c0-1.26-.379-2.243-1.137-2.951-.758-.706-1.769-1.048-3.029-1.02-1.337.024-2.61.462-3.817 1.31v14.148h-2.817V12.92c1.621-1.18 3.112-1.95 4.474-2.31 1.285-.337 2.419-.503 3.396-.503a8.81 8.81 0 011.888.194c1.106.256 2.006.73 2.699 1.427.774.77 1.159 1.694 1.159 2.776v12.913zM17.36 1.537c-1.449.007-2.832.13-4.05.346-3.586.634-4.238 1.96-4.238 4.406v3.23h8.476v1.077H5.892c-2.464 0-4.62 1.48-5.295 4.297-.779 3.228-.813 5.243 0 8.614.602 2.51 2.041 4.297 4.504 4.297h2.914v-3.872c0-2.798 2.42-5.265 5.295-5.265h8.466c2.357 0 4.238-1.94 4.238-4.308V6.29c0-2.297-1.938-4.022-4.238-4.406a26.437 26.437 0 00-4.416-.346zm-4.583 2.598c.875 0 1.59.727 1.59 1.62 0 .89-.715 1.61-1.59 1.61a1.6 1.6 0 01-1.59-1.61c0-.893.711-1.62 1.59-1.62z" fill="#fff"/><path d="M27.07 10.596v3.763c0 2.918-2.473 5.374-5.294 5.374H13.31c-2.319 0-4.238 1.985-4.238 4.307v8.07c0 2.298 1.998 3.649 4.238 4.308 2.683.789 5.256.931 8.466 0 2.134-.618 4.238-1.861 4.238-4.307v-3.23h-8.466v-1.077h12.704c2.463 0 3.38-1.718 4.237-4.297.885-2.655.848-5.208 0-8.614-.608-2.452-1.771-4.297-4.237-4.297H27.07zm-4.76 20.438a1.6 1.6 0 011.59 1.61c0 .894-.712 1.62-1.59 1.62-.876 0-1.591-.726-1.591-1.62 0-.89.715-1.61 1.59-1.61zM144.766 8.021h.494V4.924h1.169v-.369h-2.833v.37h1.17V8.02zm2.101 0h.422V5.193l.915 2.828h.47l.954-2.819v2.819h.46V4.555h-.608l-1.043 2.97-.889-2.97h-.681v3.466z" fill="#fff"/></svg>