<svg width="51" height="51" viewBox="0 0 51 51" fill="none" xmlns="http://www.w3.org/2000/svg">
<rect width="51" height="51" rx="6" fill="#171717"/>
<path d="M32.475 25C34.614 25 36.3345 23.24 36.3345 21.0714C36.3345 18.9029 34.614 17.1429 32.475 17.1429C30.336 17.1429 28.6 18.9029 28.6 21.0714C28.6 23.24 30.336 25 32.475 25ZM20.85 23.4286C23.423 23.4286 25.4845 21.3229 25.4845 18.7143C25.4845 16.1057 23.423 14 20.85 14C18.277 14 16.2 16.1057 16.2 18.7143C16.2 21.3229 18.277 23.4286 20.85 23.4286ZM32.475 28.1429C29.6385 28.1429 23.95 29.5886 23.95 32.4643V36H41V32.4643C41 29.5886 35.3115 28.1429 32.475 28.1429ZM20.85 26.5714C17.2385 26.5714 10 28.41 10 32.0714V36H20.85V32.4643C20.85 31.1286 21.3615 28.7871 24.5235 27.0114C23.175 26.7286 21.873 26.5714 20.85 26.5714Z" fill="#FFF735"/>
</svg>
