<svg width="31" height="19" viewBox="0 0 31 19" fill="none" xmlns="http://www.w3.org/2000/svg">
<path d="M30.4604 2.00865L30.464 2.00186C30.4846 1.96366 30.4968 1.92124 30.4994 1.87809C30.5021 1.83398 30.4952 1.79008 30.4796 1.7498C30.4644 1.71073 30.4407 1.67552 30.4108 1.64705C30.3887 1.62598 30.3643 1.60973 30.3387 1.59822C28.1858 1.24573 26.0003 1.1512 23.8263 1.31654L23.7444 1.3641L23.6389 1.37553C23.6319 1.37628 23.6239 1.37899 23.6157 1.38511L23.3168 0.984309L23.6157 1.38511C23.6069 1.39164 23.5989 1.40133 23.5935 1.41367L23.5892 1.42358L23.5844 1.4333C23.3577 1.89764 23.1518 2.36693 22.9413 2.84675C22.8974 2.94701 22.8532 3.04773 22.8086 3.14896C22.5527 3.72938 22.2848 4.32136 21.971 4.9031M30.4604 2.00865L0.558298 1.39596C0.564825 1.39596 0.571493 1.39585 0.578293 1.39561M30.4604 2.00865L30.4569 2.01554C30.3731 2.18301 30.2939 2.33165 30.2121 2.4852C30.1473 2.60676 30.0809 2.7314 30.0093 2.87088L29.9563 2.97423L29.9542 3.09037C29.9538 3.11142 29.9485 3.13125 29.9395 3.14808C29.9301 3.16566 29.9181 3.1782 29.9059 3.18646L29.804 3.25571L29.746 3.36437C28.4267 5.83341 26.8969 8.17659 25.175 10.3663C25.1656 10.3751 25.1566 10.3841 25.148 10.3935L25.1479 10.3936C25.0877 10.4587 25.0439 10.5384 25.0216 10.626L24.9381 10.954L25.2115 11.1534C26.2257 11.8932 27.9014 13.1768 29.0287 14.521C29.5958 15.1973 29.983 15.8416 30.1099 16.4022C30.2273 16.921 30.1264 17.3649 29.6826 17.7633L29.6818 17.764C29.4591 17.9648 29.0926 18.1363 28.5976 18.2566C28.1104 18.3751 27.5405 18.4341 26.9533 18.4406C25.7705 18.4537 24.615 18.254 24.0121 17.9831C23.252 17.5798 22.5438 17.079 21.9048 16.4926L21.8956 16.4842L21.886 16.4763C21.5833 16.225 21.3087 16.0172 21.0491 15.8757C20.7838 15.7312 20.5026 15.6382 20.1951 15.6575C19.8893 15.6767 19.6233 15.8028 19.3808 15.9709C19.1427 16.1359 18.8955 16.3642 18.6259 16.6305L18.6257 16.6306C18.5715 16.6842 18.5186 16.7366 18.467 16.7878C17.8427 17.4064 17.3943 17.8507 16.8897 18.1402C16.3833 18.4308 15.7995 18.5726 14.8817 18.4632C12.5581 18.0432 10.3953 16.9547 8.644 15.3211L8.64406 15.3211L8.63675 15.3145C4.60159 11.6962 1.75723 6.87323 0.50099 1.51295M30.4604 2.00865L0.50099 1.51295M21.971 4.9031C21.7119 5.38839 21.4397 5.86842 21.1547 6.3354L21.1538 6.33682C21.0776 6.46077 21.0109 6.58052 20.9402 6.70751C20.906 6.76878 20.871 6.83172 20.8335 6.89764C20.7254 7.08744 20.6013 7.29344 20.4502 7.47545C20.2964 7.66072 20.1024 7.83649 19.8475 7.95217C19.6131 8.0585 19.3545 8.10173 19.0715 8.08219C18.7623 8.14516 18.3664 8.15018 18.081 7.85915C17.7948 7.56717 17.7999 7.15472 17.8575 6.8319C17.8575 6.52037 17.8577 6.1979 17.8695 5.87527L17.8879 5.01271L17.9063 4.14652L17.9065 4.1365L17.9071 4.1265C17.9768 2.98902 17.9092 1.84708 17.7065 0.726762L17.5922 0.692508L17.4922 0.543533C17.4824 0.528864 17.4702 0.520539 17.4594 0.516692C17.4487 0.51288 17.4376 0.512718 17.427 0.516108L17.3435 0.542697L17.2559 0.539303C15.4262 0.468386 13.5941 0.49345 11.7669 0.614407C11.7373 0.621329 11.7085 0.637079 11.6845 0.661793C11.6574 0.68965 11.6374 0.728567 11.6311 0.774445L11.6167 0.877783L11.5622 0.966758C11.5381 1.00624 11.5294 1.05535 11.5393 1.10221L11.5426 1.1176L11.5449 1.13316C11.6211 1.64769 11.7396 2.13847 11.8638 2.65292C11.8915 2.76745 11.9194 2.88316 11.9472 3.00057C12.0974 3.63455 12.2402 4.30414 12.2792 5.02645L12.2793 5.02796C12.3066 5.56361 12.3027 6.10066 12.267 6.63616M21.971 4.9031C21.9708 4.9034 21.9707 4.9037 21.9705 4.904L21.5305 4.66658L21.9716 4.90206C21.9714 4.90241 21.9712 4.90276 21.971 4.9031ZM12.267 6.63616C12.2483 6.94468 12.2172 7.21904 12.1593 7.43723C12.1106 7.62067 12.0024 7.93107 11.7008 8.07277C11.3608 8.23245 11.0482 8.06451 10.8863 7.95142C10.7031 7.82341 10.5134 7.62892 10.3189 7.40276C9.49574 6.44849 8.91794 5.33202 8.37553 4.26824C8.35851 4.23487 8.34153 4.20155 8.32458 4.16829C7.79714 3.13337 7.29722 2.15247 6.62039 1.30583L6.56996 1.28496L6.50429 1.22423C6.46504 1.18792 6.41827 1.1663 6.37036 1.1595C4.50057 0.95464 2.61215 1.02128 0.760456 1.35739C0.751245 1.36108 0.741493 1.3647 0.731242 1.36812C0.676358 1.38647 0.624319 1.39398 0.578293 1.39561M12.267 6.63616C12.267 6.63669 12.267 6.63722 12.2669 6.63775L11.768 6.60448L12.2671 6.63474C12.2671 6.63521 12.2671 6.63568 12.267 6.63616ZM0.578293 1.39561C0.569428 1.39632 0.560212 1.39886 0.550916 1.40377C0.541187 1.40891 0.531267 1.41688 0.522503 1.42837C0.513794 1.43979 0.506996 1.45382 0.503322 1.46963C0.499709 1.48517 0.499228 1.49992 0.50099 1.51295M0.578293 1.39561L0.50099 1.51295" stroke="white"/>
</svg>
