<?xml version="1.0" encoding="utf-8"?><svg xmlns="http://www.w3.org/2000/svg" xmlns:xlink="http://www.w3.org/1999/xlink"><symbol fill="none" viewBox="0 0 51 51" id="branding-icon" xmlns="http://www.w3.org/2000/svg"><path d="M51 13.91V0H37.09v4.636H13.91V0H0v13.91h4.636v23.18H0V51h13.91v-4.636h23.18V51H51V37.09h-4.636V13.91H51zM4.636 4.635h4.637v4.637H4.636V4.636zm4.637 41.728H4.636v-4.637h4.637v4.637zm27.818-4.637H13.909V37.09H9.273V13.909h4.636V9.273h23.182v4.636h4.636v23.182h-4.636v4.636zm9.273 4.637h-4.637v-4.637h4.637v4.637zm-4.637-37.09V4.636h4.637v4.637h-4.637zM29.511 30.136H21.42l-1.692 4.637h-3.756l7.882-20.864H27.1l7.905 20.864h-3.778l-1.715-4.637zm-7.048-2.92h6.05l-3.013-8.88-3.037 8.88z" fill="#171717"/></symbol><symbol fill="none" viewBox="0 0 291 46" id="company-icon--1" xmlns="http://www.w3.org/2000/svg"><path d="M15.274 16.318H7.538c-.34 0-.51.148-.51.444 0 .714.384 1.389 1.152 2.025.78.625 1.613.938 2.502.938.527 0 1.108-.099 1.745-.296.647-.209 1.18-.461 1.596-.757.373-.264.67-.395.89-.395.284 0 .564.175.838.526.275.352.412.714.412 1.087 0 .79-.494 1.552-1.481 2.288-1.745 1.305-3.758 1.958-6.04 1.958-2.305 0-4.236-.67-5.795-2.008a8.228 8.228 0 01-1.876-2.386A8.35 8.35 0 010 15.824c0-1.843.56-3.5 1.679-4.97a8.826 8.826 0 013.687-2.848c1.119-.472 2.331-.708 3.637-.708 2.085 0 3.857.593 5.317 1.778a7.111 7.111 0 011.777 2.107c.516.921.774 1.821.774 2.7 0 .712-.148 1.3-.445 1.76-.296.45-.68.675-1.152.675zM7.966 13.24H9.63c.702 0 1.053-.324 1.053-.97 0-.593-.17-1.076-.51-1.45-.34-.372-.785-.559-1.333-.559-.615 0-1.098.242-1.449.724-.329.45-.494.905-.494 1.366 0 .33.077.56.23.692.165.131.445.197.84.197zm19.373-5.958c1.91 0 3.528.483 4.855 1.448.703.516 1.19 1.109 1.465 1.778.285.658.428 1.57.428 2.732l-.033 2.453c0 1.7.12 2.803.362 3.308.121.241.236.395.346.46.11.067.34.127.691.182.351.055.527.285.527.691 0 .527-.214 1.076-.642 1.646a5.169 5.169 0 01-1.63 1.432c-.822.483-1.684.724-2.583.724-1.153 0-2.063-.395-2.733-1.185-.23-.285-.444-.428-.642-.428-.22 0-.51.137-.872.412-1.097.8-2.343 1.201-3.736 1.201-1.438 0-2.6-.307-3.49-.921a4.377 4.377 0 01-1.382-1.58 4.426 4.426 0 01-.51-2.058c0-1.141.46-2.15 1.382-3.029 1.438-1.382 3.588-2.079 6.452-2.09.637 0 1.037-.06 1.202-.18.164-.133.247-.429.247-.89 0-1.163-.121-2.002-.363-2.518-.24-.527-.636-.79-1.185-.79-.329 0-.625.099-.888.296-.253.198-.571.56-.955 1.087-.977 1.393-1.997 2.09-3.061 2.09-.538 0-.977-.16-1.317-.477-.34-.319-.51-.736-.51-1.251 0-.527.208-1.054.625-1.58.428-.527 1.004-.988 1.728-1.383 1.986-1.053 4.06-1.58 6.222-1.58zm-1.103 9.53c-.483 0-.905.197-1.267.592a2.059 2.059 0 00-.527 1.416c0 .527.126.954.379 1.284.252.318.587.477 1.004.477.877 0 1.316-.74 1.316-2.222 0-.604-.065-1.01-.197-1.218-.12-.208-.357-.318-.708-.33zM43.65 7.298c.549 0 1.443.121 2.683.362.252.044.46.066.625.066.187 0 .549-.098 1.087-.296.252-.099.466-.148.642-.148.504 0 1.015.324 1.53.971.417.516.757 1.08 1.02 1.695.264.615.396 1.147.396 1.597 0 .439-.154.806-.461 1.103-.307.285-.691.428-1.152.428-.384 0-.73-.094-1.037-.28-.296-.187-.78-.598-1.449-1.235-.702-.68-1.283-1.02-1.744-1.02-.307 0-.576.115-.807.345-.22.22-.329.483-.329.79 0 .538.516 1.043 1.547 1.515 1.855.834 3.276 1.744 4.263 2.732.834.834 1.251 1.854 1.251 3.062 0 1.525-.67 2.798-2.008 3.818-1.152.889-2.562 1.333-4.23 1.333-.428 0-1.207-.071-2.337-.214-1.065-.12-1.663-.18-1.794-.18-.143 0-.307.016-.494.049a5.721 5.721 0 01-.691.065c-.516 0-.922-.131-1.218-.395-.45-.406-.867-1.042-1.251-1.909-.384-.878-.576-1.63-.576-2.255 0-1.01.395-1.514 1.185-1.514.307 0 .587.104.84.313.263.197.806.735 1.629 1.613.45.483.823.817 1.119 1.004.296.175.614.263.954.263.363 0 .653-.093.873-.28a.991.991 0 00.329-.773c0-.494-.422-.944-1.267-1.35-1.767-.867-3.045-1.761-3.835-2.683a4.801 4.801 0 01-1.169-3.193c0-1.306.4-2.43 1.202-3.374 1.14-1.35 2.699-2.025 4.674-2.025zm25.166 8.098l-2.172 5.975c-.538 1.481-1.081 2.688-1.63 3.621-.537.944-1.152 1.745-1.843 2.403-1.427 1.36-3.144 2.041-5.152 2.041-1.624 0-2.94-.428-3.95-1.284-.78-.658-1.169-1.498-1.169-2.518 0-.845.269-1.553.807-2.123.548-.582 1.218-.873 2.008-.873s1.426.264 1.909.79c.23.242.384.456.46.642.078.187.193.598.346 1.235.121.483.395.724.823.724.34 0 .626-.148.856-.444.23-.297.346-.664.346-1.103 0-.516-.285-1.377-.856-2.584l-3.967-8.444c-.417-.878-.73-1.426-.938-1.646-.208-.22-.67-.488-1.382-.806-.22-.088-.412-.258-.576-.51-.154-.264-.23-.516-.23-.758 0-.976.97-1.64 2.912-1.991 1.295-.23 2.771-.346 4.428-.346 1.163 0 2.08.12 2.749.362.9.318 1.35.862 1.35 1.63 0 .274-.127.598-.38.97-.24.352-.361.665-.361.939 0 .263.054.538.164.823.12.285.368.768.74 1.448.418.768.785 1.152 1.104 1.152.34 0 .69-.334 1.053-1.004.362-.68.543-1.333.543-1.958 0-.505-.137-.916-.411-1.235-.417-.493-.626-.916-.626-1.267 0-.56.373-1.004 1.12-1.333.746-.34 1.744-.51 2.995-.51 2.326 0 3.49.56 3.49 1.678 0 .406-.121.736-.363.988-.23.241-.658.472-1.284.691a2.535 2.535 0 00-1.25.988c-.483.735-1.037 1.947-1.663 3.637zM77.44 1.225h8.461c1.712 0 2.957-.033 3.736-.099.79-.077 1.558-.225 2.305-.444.23-.066.411-.099.543-.099.57 0 1.075.307 1.514.922.724.998 1.086 2.205 1.086 3.62 0 .714-.153 1.28-.46 1.696-.297.406-.708.61-1.235.61-.362 0-.647-.072-.856-.215-.198-.154-.466-.488-.806-1.004-.483-.735-1.098-1.223-1.844-1.465-.735-.252-1.948-.378-3.637-.378-1.262 0-2.03.225-2.305.674-.142.242-.23.566-.263.972-.022.406-.033 1.442-.033 3.11 0 .659.11 1.07.33 1.235.219.153.795.23 1.728.23.46 0 .795-.093 1.004-.28.208-.197.34-.543.395-1.037.076-.636.153-1.07.23-1.3.088-.241.241-.45.46-.625a1.2 1.2 0 01.807-.296c.45 0 .834.213 1.152.641.23.319.423.884.577 1.696.164.8.246 1.64.246 2.518 0 1.734-.268 3.155-.806 4.263-.296.603-.746.905-1.35.905-.373 0-.63-.093-.773-.28-.143-.197-.253-.598-.33-1.201-.164-1.24-.888-1.86-2.172-1.86-.494 0-.834.16-1.02.477-.176.307-.264.884-.264 1.729 0 .515.033 1.185.099 2.008.077.811.153 1.35.23 1.613.088.329.357.56.807.69.46.121 1.223.182 2.288.182 1.645 0 2.885-.209 3.72-.626.833-.427 1.514-1.196 2.04-2.304.308-.636.582-1.064.823-1.284.253-.22.576-.329.971-.329.461 0 .84.203 1.136.61.307.394.46.893.46 1.497 0 .658-.17 1.481-.51 2.469-.34.987-.757 1.865-1.25 2.633-.253.373-.461.62-.626.741a.97.97 0 01-.625.198 5.96 5.96 0 01-.905-.1c-.703-.131-1.64-.213-2.815-.246H75.746c-.56 0-.993-.12-1.3-.362-.308-.253-.462-.604-.462-1.054 0-.318.066-.548.198-.691.132-.143.433-.324.905-.543.33-.143.57-.318.724-.527.165-.208.291-.515.379-.922.362-1.656.543-3.89.543-6.698 0-4.236-.263-6.908-.79-8.016-.11-.22-.23-.373-.362-.461-.132-.088-.406-.192-.823-.313-.625-.186-.938-.603-.938-1.25 0-.352.104-.664.313-.939.208-.274.482-.455.823-.543.427-.099 1.256-.148 2.485-.148zm37.084 11.225l-4.263 8.296c-.659 1.283-1.218 2.178-1.679 2.683-.461.493-.955.74-1.481.74-.516 0-.933-.186-1.251-.56a12.837 12.837 0 01-1.762-2.534l-4.674-8.872c-.252-.483-.5-.828-.74-1.037-.231-.22-.555-.384-.972-.494-.834-.24-1.25-.69-1.25-1.35 0-.668.515-1.157 1.547-1.464 1.031-.307 2.66-.46 4.888-.46 1.865 0 3.237.136 4.115.41.889.264 1.333.675 1.333 1.235 0 .395-.209.774-.625 1.136-.264.241-.434.422-.511.543a.843.843 0 00-.115.46c0 .374.241.994.724 1.86.483.846.933 1.268 1.35 1.268a.844.844 0 00.675-.313c.175-.208.494-.746.954-1.613.341-.636.511-1.119.511-1.448 0-.264-.176-.576-.527-.938-.373-.395-.56-.763-.56-1.103 0-.527.346-.905 1.037-1.136.703-.23 1.849-.345 3.44-.345 2.239 0 3.358.482 3.358 1.448 0 .56-.401.966-1.202 1.218-.625.197-1.053.412-1.283.642-.22.23-.566.806-1.037 1.728zm18.072 3.868h-7.736c-.34 0-.51.148-.51.444 0 .714.384 1.389 1.152 2.025.779.625 1.613.938 2.502.938.526 0 1.108-.099 1.744-.296.648-.209 1.18-.461 1.597-.757.373-.264.669-.395.889-.395.285 0 .565.175.839.526.275.352.412.714.412 1.087 0 .79-.494 1.552-1.482 2.288-1.744 1.305-3.758 1.958-6.04 1.958-2.304 0-4.236-.67-5.794-2.008a8.233 8.233 0 01-1.876-2.386 8.342 8.342 0 01-.971-3.918c0-1.843.559-3.5 1.679-4.97a8.822 8.822 0 013.686-2.848c1.12-.472 2.332-.708 3.638-.708 2.085 0 3.857.593 5.316 1.778a7.117 7.117 0 011.778 2.107c.516.921.773 1.821.773 2.7 0 .712-.148 1.3-.444 1.76-.296.45-.68.675-1.152.675zm-7.308-3.078h1.662c.703 0 1.054-.324 1.054-.97 0-.593-.17-1.076-.51-1.45-.341-.372-.785-.559-1.334-.559-.614 0-1.097.242-1.448.724-.329.45-.494.905-.494 1.366 0 .33.077.56.231.692.164.131.444.197.839.197zm29.939.132l.231 5.794c.022.438.088.762.197.97.121.21.461.61 1.021 1.202.164.176.247.423.247.74 0 .725-.434 1.23-1.301 1.515-.866.285-2.414.428-4.641.428-1.514 0-2.584-.132-3.21-.395-.647-.274-.971-.719-.971-1.333 0-.22.033-.379.099-.477.066-.11.285-.368.658-.774.439-.461.659-1.997.659-4.609 0-1.514-.176-2.633-.527-3.357-.285-.582-.812-.873-1.58-.873-.735 0-1.24.236-1.514.708-.275.472-.412 1.328-.412 2.568v3.259c0 .647.039 1.091.115 1.333.088.241.363.707.823 1.399.121.197.181.422.181.675 0 .647-.449 1.124-1.349 1.432-.9.307-2.304.46-4.214.46-3.05 0-4.575-.63-4.575-1.892 0-.264.043-.461.131-.593.099-.142.324-.34.675-.592.285-.209.466-.445.543-.708.077-.274.148-.938.214-1.992a64.12 64.12 0 00.115-3.934c0-.757-.06-1.25-.181-1.48-.109-.242-.439-.533-.987-.873-.472-.296-.708-.659-.708-1.087 0-.438.192-.795.576-1.07.384-.285 1.174-.641 2.37-1.07a36.62 36.62 0 013.045-.937c.977-.264 1.646-.395 2.008-.395.329 0 .604.12.823.362.231.241.346.526.346.856 0 .033-.006.17-.017.411a1.873 1.873 0 00-.016.23c0 .527.219.79.658.79.264 0 .543-.208.84-.625.943-1.36 2.315-2.04 4.115-2.04 1.382 0 2.567.361 3.555 1.085.691.516 1.174 1.125 1.448 1.827.275.692.445 1.712.51 3.062zm12.427-1.762v5.564c0 .658.159 1.196.478 1.613.329.417.746.625 1.25.625.428 0 .993-.197 1.696-.592a.95.95 0 01.493-.148c.264 0 .505.159.725.477.219.318.329.664.329 1.037 0 .68-.373 1.333-1.119 1.959-1.558 1.327-3.446 1.991-5.662 1.991-1.756 0-3.166-.494-4.23-1.481-1.065-.999-1.597-2.31-1.597-3.934v-7.604c0-.252-.033-.406-.099-.46-.055-.067-.208-.1-.461-.1h-1.695c-.318 0-.521-.05-.609-.148-.088-.11-.132-.356-.132-.74v-.725c.011-.329.138-.57.379-.724l7.538-4.74c.187-.099.417-.148.692-.148h1.333c.274 0 .455.066.543.197.099.12.148.368.148.74v2.223c0 .33.05.543.148.642.11.099.335.148.675.148h3.045c.406 0 .669.077.79.23.121.143.181.456.181.939v.97c0 .527-.077.895-.23 1.103-.154.198-.434.297-.84.297h-2.979c-.307 0-.515.055-.625.164-.11.11-.165.319-.165.626zm15.11-9.579l-.214 6.897c-.022.823.23 1.234.757 1.234.263 0 .521-.18.774-.543 1.064-1.547 2.485-2.32 4.262-2.32 1.745 0 3.133.532 4.165 1.596.461.472.784 1.031.971 1.679.197.647.307 1.574.329 2.781l.148 5.942c.011.516.077.895.198 1.136.131.241.428.543.888.905.319.252.478.554.478.905 0 1.186-1.789 1.778-5.366 1.778-3.182 0-4.773-.554-4.773-1.662 0-.187.027-.33.082-.428.055-.1.247-.362.576-.79.461-.604.691-2.113.691-4.527 0-1.459-.137-2.523-.411-3.193-.362-.91-1.009-1.366-1.942-1.366-.67 0-1.163.242-1.482.724-.23.351-.345 1.01-.345 1.975v3.177c.077 1.405.142 2.2.197 2.387.055.186.308.532.757 1.037.209.23.313.499.313.806 0 1.24-1.613 1.86-4.839 1.86-3.774 0-5.662-.642-5.662-1.926 0-.296.061-.52.181-.675.121-.164.417-.411.889-.74.417-.296.702-1.092.856-2.387.165-1.306.247-3.462.247-6.468 0-2.36-.066-3.994-.198-4.905-.044-.34-.126-.587-.247-.74-.109-.165-.323-.33-.642-.495-.68-.35-1.02-.757-1.02-1.218 0-.548.258-.993.774-1.333.515-.34 1.503-.708 2.962-1.103 1.975-.548 3.55-.823 4.724-.823.637 0 .944.275.922.823zm22.878 6.403v9.563c0 .757.066 1.311.198 1.662.142.351.422.675.839.971.34.242.565.45.675.626.121.164.181.378.181.642 0 1.415-1.794 2.123-5.382 2.123-1.931 0-3.462-.154-4.592-.46a1.918 1.918 0 01-.938-.577 1.416 1.416 0 01-.346-.938c0-.296.06-.527.181-.691.121-.165.428-.428.922-.79.34-.253.581-.664.724-1.235.142-.57.214-1.42.214-2.551 0-.362-.028-1.037-.082-2.025-.044-.998-.077-1.58-.099-1.744-.066-.45-.373-.796-.922-1.037-.68-.296-1.02-.735-1.02-1.317 0-.691.444-1.207 1.333-1.547a30.294 30.294 0 013.95-1.202c1.405-.329 2.491-.493 3.259-.493.603 0 .905.34.905 1.02zm-3.259-7.21c.955 0 1.712.182 2.272.544.559.351.839.829.839 1.432 0 .845-.422 1.514-1.267 2.008-1.339.78-2.957 1.169-4.856 1.169-.801 0-1.437-.154-1.909-.461-.636-.395-.955-.944-.955-1.646 0-.944.675-1.684 2.025-2.222 1.371-.549 2.655-.823 3.851-.823zm13.81 6.173c.581 0 .932.082 1.053.247.132.165.247.691.346 1.58.054.483.225.724.51.724.219 0 .428-.159.625-.477.878-1.372 2.025-2.057 3.44-2.057.999 0 1.816.323 2.453.97.307.319.559.73.757 1.235.197.494.296.971.296 1.432 0 .516-.121 1.048-.362 1.597a3.989 3.989 0 01-.938 1.333c-.702.67-1.564 1.004-2.584 1.004-.56 0-1.032-.099-1.416-.296-.373-.198-.867-.598-1.481-1.202-.231-.23-.444-.346-.642-.346-.307 0-.51.176-.609.527-.088.34-.132 1.065-.132 2.173 0 1.657.061 2.787.181 3.39.077.33.181.56.313.692.143.12.439.247.889.378.987.297 1.481.812 1.481 1.547 0 .45-.159.845-.477 1.186-.318.329-.741.548-1.267.658-1.054.22-2.601.329-4.642.329-1.942 0-3.418-.17-4.428-.51-.899-.308-1.349-.84-1.349-1.597 0-.57.329-1.08.987-1.53.319-.209.538-.396.659-.56.12-.176.203-.412.247-.708.175-.998.263-2.847.263-5.547 0-.493-.055-.845-.165-1.053-.109-.22-.329-.395-.658-.527-.779-.307-1.169-.751-1.169-1.333 0-.527.269-.976.807-1.35.538-.384 1.437-.762 2.699-1.135 1.69-.505 3.128-.763 4.313-.774zm25.199 8.921h-7.736c-.34 0-.51.148-.51.444 0 .714.384 1.389 1.152 2.025.779.625 1.613.938 2.502.938.526 0 1.108-.099 1.744-.296.648-.209 1.18-.461 1.597-.757.373-.264.669-.395.889-.395.285 0 .565.175.839.526.274.352.412.714.412 1.087 0 .79-.494 1.552-1.482 2.288-1.744 1.305-3.758 1.958-6.04 1.958-2.305 0-4.236-.67-5.794-2.008a8.216 8.216 0 01-1.876-2.386 8.342 8.342 0 01-.971-3.918 8 8 0 011.678-4.97 8.831 8.831 0 013.687-2.848c1.119-.472 2.332-.708 3.638-.708 2.085 0 3.857.593 5.316 1.778a7.117 7.117 0 011.778 2.107c.515.921.773 1.821.773 2.7 0 .712-.148 1.3-.444 1.76-.296.45-.68.675-1.152.675zm-7.308-3.078h1.662c.702 0 1.054-.324 1.054-.97 0-.593-.17-1.076-.511-1.45-.34-.372-.784-.559-1.333-.559-.614 0-1.097.242-1.448.724-.329.45-.494.905-.494 1.366 0 .33.077.56.23.692.165.131.445.197.84.197zm18.994-5.003v8.92c0 1.91.631 2.864 1.893 2.864.318 0 .631-.087.938-.263.307-.186.521-.411.642-.675.241-.526.362-1.7.362-3.522 0-1.8-.061-3.029-.181-3.687-.044-.274-.121-.472-.231-.593-.109-.131-.318-.28-.625-.444-.626-.33-.938-.746-.938-1.25 0-.681.537-1.153 1.613-1.416a25.091 25.091 0 016.04-.757c1.109 0 1.663.587 1.663 1.76 0 .121-.006.368-.017.741a72.784 72.784 0 00-.049 1.926V19.1c0 .373.318.713.954 1.02.538.264.807.648.807 1.152 0 .988-1.169 1.75-3.506 2.288a17.601 17.601 0 01-3.983.478c-.527 0-.889-.06-1.086-.182-.187-.12-.297-.356-.329-.707-.055-.68-.264-1.02-.626-1.02a.69.69 0 00-.362.098c-.11.055-.444.274-1.004.658-1.108.757-2.299 1.136-3.572 1.136-2.107 0-3.593-.609-4.46-1.827-.735-1.02-1.103-2.738-1.103-5.152 0-.9.006-1.668.016-2.304v-.757c0-.944-.087-1.635-.263-2.074-.164-.45-.472-.801-.922-1.053-.428-.22-.702-.395-.823-.527-.109-.132-.164-.313-.164-.543 0-.834.631-1.388 1.893-1.663a30.02 30.02 0 016.452-.707c.647 0 .971.274.971.823zm23.356-6.206l-.149 5.152c-.011.516-.016 1.273-.016 2.272 0 1.108.016 1.76.049 1.958.077.45.308.675.692.675.329 0 .834-.208 1.514-.625.68-.428 1.02-.747 1.02-.955 0-.12-.12-.34-.362-.658-.175-.23-.263-.45-.263-.659 0-1.185 1.459-1.777 4.378-1.777 1.514 0 2.71.153 3.588.46.351.121.642.33.873.626.23.296.345.614.345.955 0 .493-.236.839-.708 1.037-.098.043-.417.115-.954.213-.483.088-1.108.39-1.877.906-.768.505-1.152.872-1.152 1.102 0 .154.461.878 1.383 2.173a61.65 61.65 0 002.6 3.358c.516.625.917 1.064 1.202 1.317.296.252.702.52 1.218.806.79.428 1.185.916 1.185 1.465 0 .581-.252 1.037-.757 1.366-.494.33-1.174.494-2.041.494h-5.333c-.669-.011-1.19-.258-1.564-.74l-2.732-3.507c-.724-.921-1.168-1.47-1.333-1.646-.154-.175-.285-.263-.395-.263-.132 0-.219.099-.263.296-.044.198-.066.57-.066 1.12 0 .493.055.855.164 1.086.11.22.363.488.758.806.285.23.428.571.428 1.02 0 .769-.406 1.323-1.218 1.663-.812.34-2.151.51-4.017.51-2.194 0-3.621-.093-4.279-.28a1.894 1.894 0 01-.955-.658c-.263-.34-.395-.697-.395-1.07 0-.416.231-.779.692-1.086.395-.252.647-.444.757-.576.11-.132.197-.34.263-.625.253-1.537.373-3.907.362-7.11V9.026c0-1.23-.066-2.014-.197-2.354-.121-.34-.428-.543-.922-.609-.9-.12-1.35-.494-1.35-1.12 0-.416.198-.79.593-1.119.395-.34 1.042-.674 1.942-1.004 2.875-1.064 5.004-1.596 6.386-1.596.626 0 .927.269.906.806zM91.465 38.297h-4.57c-.208 0-.302.094-.302.264 0 .414.227.809.68 1.186.452.377.944.565 1.473.565.302 0 .661-.057 1.04-.17a3.37 3.37 0 00.944-.434c.227-.15.396-.227.53-.227.17 0 .338.094.491.301a.98.98 0 01.245.642c0 .47-.284.904-.868 1.336-1.02.773-2.21 1.15-3.55 1.15-1.36 0-2.493-.395-3.418-1.187a4.687 4.687 0 01-1.096-1.393 4.874 4.874 0 01-.57-2.297c0-1.073.322-2.053.982-2.92a5.175 5.175 0 012.172-1.677 5.372 5.372 0 012.134-.415c1.227 0 2.266.339 3.134 1.036.435.338.775.753 1.04 1.243.301.546.452 1.074.452 1.582 0 .414-.094.752-.265 1.036-.188.246-.413.379-.678.379zm-4.306-1.808h.982c.415 0 .623-.188.623-.565 0-.338-.094-.641-.302-.849-.207-.226-.453-.32-.793-.32-.36 0-.643.15-.851.434-.188.264-.284.528-.284.81 0 .187.037.32.131.413.098.04.249.077.494.077zm11.407-3.503c1.133 0 2.078.283 2.852.848.416.301.7.641.868 1.036.169.395.245.923.245 1.601l-.019 1.43c0 1 .076 1.639.208 1.94.076.15.131.227.207.264.057.037.208.076.416.113.208.037.302.17.302.414 0 .302-.132.642-.378.96a3.035 3.035 0 01-.963.849c-.492.283-1.001.433-1.529.433-.68 0-1.21-.226-1.605-.697-.132-.17-.265-.245-.378-.245-.132 0-.302.076-.51.245-.643.47-1.378.697-2.191.697-.85 0-1.529-.187-2.058-.545a2.627 2.627 0 01-.812-.942 2.485 2.485 0 01-.302-1.206c0-.678.265-1.263.812-1.77.85-.81 2.115-1.225 3.796-1.225.379 0 .604-.037.7-.113.094-.076.151-.244.151-.508 0-.678-.076-1.187-.208-1.488-.15-.3-.378-.451-.7-.451a.828.828 0 00-.509.17c-.151.113-.34.32-.567.64-.566.81-1.17 1.224-1.793 1.224-.321 0-.566-.093-.774-.283-.208-.188-.302-.434-.302-.735 0-.3.131-.621.378-.922a3.218 3.218 0 011.02-.81 7.514 7.514 0 013.643-.924zm-.66 5.592a.972.972 0 00-.737.338 1.197 1.197 0 00-.322.83c0 .3.077.564.228.752a.71.71 0 00.586.283c.51 0 .774-.434.774-1.3 0-.357-.038-.584-.114-.715-.057-.112-.208-.188-.415-.188zm10.254-5.592c.322 0 .851.076 1.586.207.151.02.265.037.359.037.113 0 .321-.056.643-.17.15-.056.284-.093.378-.093.302 0 .603.187.907.564.245.301.453.641.604 1 .151.357.227.677.227.941a.866.866 0 01-.264.641.99.99 0 01-.681.264c-.227 0-.435-.056-.603-.17a7.311 7.311 0 01-.851-.715c-.415-.395-.755-.602-1.019-.602a.65.65 0 00-.472.207.642.642 0 00-.208.47c0 .321.302.603.907.886 1.096.49 1.927 1.017 2.513 1.601a2.44 2.44 0 01.737 1.789c0 .905-.396 1.638-1.19 2.242-.68.527-1.511.791-2.493.791-.245 0-.717-.037-1.378-.13a18.337 18.337 0 00-1.058-.114c-.077 0-.189.02-.284.037-.189.02-.322.037-.416.037-.302 0-.547-.076-.717-.227-.265-.244-.51-.621-.737-1.13-.228-.508-.339-.96-.339-1.317 0-.584.227-.885.699-.885a.78.78 0 01.492.17c.151.113.472.434.962.96.265.283.492.47.661.584.169.113.359.15.566.15a.753.753 0 00.51-.17c.132-.113.188-.263.188-.451 0-.284-.245-.546-.754-.792-1.039-.508-1.794-1.036-2.248-1.581-.453-.546-.7-1.167-.7-1.884 0-.772.227-1.431.7-1.978.676-.755 1.601-1.169 2.773-1.169zm14.806 4.764l-1.284 3.502c-.321.866-.642 1.582-.962 2.129a6.439 6.439 0 01-1.096 1.413c-.831.792-1.85 1.206-3.04 1.206-.962 0-1.736-.245-2.322-.753-.453-.395-.68-.885-.68-1.47 0-.49.151-.904.472-1.243a1.563 1.563 0 011.17-.508c.472 0 .831.15 1.133.471.131.15.227.264.265.377.037.114.113.358.207.716.077.283.228.434.492.434.208 0 .359-.094.51-.264.151-.17.208-.395.208-.641 0-.301-.171-.81-.51-1.525l-2.344-4.955c-.245-.508-.435-.829-.547-.96-.131-.13-.396-.283-.811-.47a.74.74 0 01-.34-.302.818.818 0 01-.131-.434c0-.565.567-.96 1.719-1.166a15.304 15.304 0 012.607-.208c.68 0 1.227.076 1.625.208.529.187.793.508.793.96 0 .17-.076.357-.227.564-.151.207-.208.395-.208.546 0 .15.038.32.094.49.077.17.208.452.435.848.245.452.453.679.643.679.208 0 .416-.208.623-.602.208-.395.322-.773.322-1.15 0-.3-.076-.545-.245-.715-.245-.284-.378-.546-.378-.753 0-.32.227-.584.66-.791.435-.188 1.019-.301 1.756-.301 1.378 0 2.058.32 2.058.979a.854.854 0 01-.207.584c-.132.15-.396.284-.755.415a1.491 1.491 0 00-.737.584c-.27.393-.591 1.108-.968 2.105zm6.551-6.126c.447 0 .872.083 1.273.248.4.165.758.406 1.076.72.305.305.538.656.701 1.053.164.398.246.818.246 1.262 0 .45-.082.872-.246 1.265-.163.393-.399.74-.71 1.04a3.509 3.509 0 01-1.09.727 3.214 3.214 0 01-2.497.004 3.272 3.272 0 01-1.072-.728 3.209 3.209 0 01-.965-2.306c0-.437.086-.857.256-1.259.171-.402.416-.763.735-1.082.302-.306.648-.54 1.039-.701a3.221 3.221 0 011.254-.243zm2.898 3.306c0-.395-.071-.77-.215-1.122a2.819 2.819 0 00-.618-.935 2.904 2.904 0 00-.947-.63 2.937 2.937 0 00-1.125-.217 2.91 2.91 0 00-1.105.21 2.715 2.715 0 00-.913.61c-.28.283-.495.6-.644.955a2.836 2.836 0 00-.005 2.199c.145.349.356.662.63.942a2.824 2.824 0 002.026.846 2.95 2.95 0 001.117-.216 2.96 2.96 0 00.955-.63 2.77 2.77 0 00.624-.92c.147-.344.22-.707.22-1.092zm-2.809-1.953c.531 0 .926.085 1.184.255.257.17.387.429.387.778a.96.96 0 01-.238.663 1.083 1.083 0 01-.644.339l.841 1.72h-.703l-.788-1.632h-.803v1.631h-.632v-3.754h1.396zm-.116.413h-.644v1.3h.662c.367 0 .629-.05.785-.148.154-.099.232-.258.232-.481 0-.236-.081-.406-.245-.512-.163-.108-.426-.16-.79-.16zm-67.178 4.077h-1.095v-.84h1.095V34.22h1.043v2.406h1.095v.84h-1.095v5.124h-1.043v-5.124zm3.298 5.123V32.489h.998v5.058a2.5 2.5 0 01.925-.854c.36-.187.778-.28 1.252-.28.704 0 1.253.186 1.649.56.395.374.593.893.593 1.558v4.06h-1.043v-3.513c0-.604-.128-1.051-.385-1.342-.252-.296-.643-.444-1.173-.444-.304 0-.582.057-.834.17a1.62 1.62 0 00-.62.47 1.487 1.487 0 00-.273.534c-.052.2-.078.547-.078 1.043v3.083h-1.01zm11.674-3.656c-.035-.526-.21-.93-.528-1.212-.313-.287-.743-.43-1.29-.43-.496 0-.908.15-1.239.45-.33.295-.521.692-.573 1.192h3.63zm1.095.828h-4.725v.091c0 .639.182 1.156.547 1.551.365.391.841.587 1.428.587.4 0 .76-.106 1.082-.32.321-.217.606-.543.853-.977l.776.521c-.3.54-.682.945-1.147 1.22-.465.273-1.004.41-1.617.41-.908 0-1.642-.3-2.203-.9-.56-.6-.84-1.386-.84-2.36 0-.934.278-1.698.834-2.294.556-.595 1.27-.892 2.144-.892.882 0 1.58.282 2.093.847.517.565.775 1.336.775 2.314v.202zm58.645 2.828v-5.123h-1.147v-.841h1.147v-1.727c0-.991.124-1.66.372-2.008.252-.352.702-.528 1.349-.528.161 0 .313.01.456.033.148.021.289.056.424.104v1.056a1.625 1.625 0 00-.802-.215c-.299 0-.506.095-.619.286-.113.192-.169.661-.169 1.408v1.59h1.59v.842h-1.564v5.123h-1.037zm8.154-2.927c0-.673-.184-1.214-.554-1.623-.365-.413-.843-.619-1.434-.619-.612 0-1.09.189-1.434.567-.343.378-.514.906-.514 1.584 0 .721.171 1.277.514 1.669.348.39.839.586 1.474.586.608 0 1.084-.189 1.427-.567.348-.382.521-.915.521-1.597zm.991-3.037v5.964h-.991v-1.082a2.622 2.622 0 01-.919.997 2.337 2.337 0 01-1.245.339c-.856 0-1.547-.293-2.072-.88-.522-.59-.782-1.37-.782-2.34 0-.982.254-1.762.762-2.34.509-.582 1.189-.873 2.04-.873.5 0 .932.113 1.297.339.37.221.667.554.893.997v-1.121h1.017zm10.351 5.964v-3.513c0-.604-.122-1.052-.365-1.343-.244-.296-.617-.443-1.121-.443-.274 0-.528.056-.763.17-.23.108-.426.264-.587.468a1.515 1.515 0 00-.254.548c-.052.209-.078.552-.078 1.03v3.083h-.984v-3.513c0-.604-.122-1.052-.365-1.343-.244-.296-.617-.443-1.121-.443-.274 0-.53.056-.769.17a1.604 1.604 0 00-.594.468 1.513 1.513 0 00-.247.528c-.048.2-.072.55-.072 1.05v3.083h-.984v-5.964h.997v.919c.248-.383.543-.667.886-.854.344-.187.739-.28 1.187-.28.482 0 .893.104 1.232.313.339.204.595.504.769.9.256-.41.558-.714.906-.913.352-.2.758-.3 1.219-.3.664 0 1.184.187 1.557.56.374.374.561.893.561 1.558v4.06h-1.01zm2.835-8.839a.71.71 0 01.215-.521.73.73 0 01.535-.222c.204 0 .378.074.521.222a.728.728 0 01.222.534.711.711 0 01-.215.522.72.72 0 01-.528.215.74.74 0 01-.535-.215.727.727 0 01-.215-.535zm.241 8.839v-5.964h1.03v5.964h-1.03zm3.233 0V32.487h1.043V42.59h-1.043zm2.94 2.907l1.616-3.494-2.34-5.377h1.18l1.734 4.282 1.838-4.282h1.121l-4.002 8.87h-1.147zm10.657-5.873c0 .63.21 1.165.632 1.603.421.435.932.652 1.532.652.595 0 1.101-.217 1.518-.651.418-.44.626-.974.626-1.604 0-.63-.208-1.162-.626-1.597a2.016 2.016 0 00-1.518-.658c-.604 0-1.117.22-1.539.658-.417.435-.625.967-.625 1.597zm-1.082 0c0-.439.08-.852.241-1.238.161-.391.395-.739.704-1.043a3.258 3.258 0 012.301-.932c.434 0 .845.08 1.232.24.391.162.745.396 1.062.705.309.3.543.645.704 1.036.161.387.241.798.241 1.232 0 .435-.08.845-.241 1.232a3.079 3.079 0 01-.704 1.023 3.354 3.354 0 01-1.069.717 3.22 3.22 0 01-2.477 0 3.23 3.23 0 01-1.049-.697 3.296 3.296 0 01-.704-1.043 3.142 3.142 0 01-.241-1.232zm8.349 2.966v-5.123h-1.147v-.841h1.147v-1.727c0-.991.124-1.66.372-2.008.252-.352.702-.528 1.349-.528.161 0 .313.01.456.033.148.021.289.056.424.104v1.056a1.625 1.625 0 00-.802-.215c-.3 0-.506.095-.619.286-.113.192-.169.661-.169 1.408v1.59h1.59v.842h-1.564v5.123h-1.037zm8.5-2.953c0 .695.178 1.239.534 1.63.357.39.845.586 1.467.586.608 0 1.084-.206 1.427-.619.348-.417.522-.993.522-1.727 0-.652-.17-1.163-.509-1.532-.339-.37-.808-.554-1.408-.554-.608 0-1.099.204-1.473.613-.373.404-.56.938-.56 1.603zm-.971-7.15h1.01v5.26c.23-.443.528-.776.893-.997.365-.226.793-.34 1.284-.34.856 0 1.538.292 2.047.874.512.582.769 1.362.769 2.34 0 .97-.261 1.75-.782 2.34-.522.587-1.213.88-2.073.88a2.37 2.37 0 01-1.258-.346 2.626 2.626 0 01-.919-.99v1.082h-.971V32.487zm7.652 10.103v-5.964h.906v1.238c.273-.517.565-.886.873-1.108.309-.221.685-.332 1.128-.332.121 0 .239.01.352.032.113.018.226.046.339.085l-.339.92a2.208 2.208 0 00-.333-.086 1.469 1.469 0 00-.3-.032c-.538 0-.942.195-1.212.586-.269.387-.404.972-.404 1.754v2.907h-1.01zm9.242-2.927c0-.673-.184-1.214-.554-1.623-.365-.413-.843-.619-1.434-.619-.612 0-1.09.189-1.434.567-.343.378-.515.906-.515 1.584 0 .721.172 1.277.515 1.669.348.39.839.586 1.473.586.609 0 1.085-.189 1.428-.567.347-.382.521-.915.521-1.597zm.991-3.037v5.964h-.991v-1.082a2.622 2.622 0 01-.919.997 2.337 2.337 0 01-1.245.339c-.856 0-1.547-.293-2.072-.88-.522-.59-.783-1.37-.783-2.34 0-.982.255-1.762.763-2.34.508-.582 1.188-.873 2.04-.873.5 0 .932.113 1.297.339.37.221.667.554.893.997v-1.121h1.017zm2.047 5.964v-5.964h.997v.919a2.5 2.5 0 01.925-.854c.361-.187.778-.28 1.252-.28.704 0 1.254.187 1.649.56.395.374.593.893.593 1.558v4.06h-1.043v-3.512c0-.604-.128-1.052-.384-1.343-.252-.296-.643-.443-1.174-.443a2 2 0 00-.834.17 1.617 1.617 0 00-.619.468 1.495 1.495 0 00-.274.535c-.052.2-.078.547-.078 1.043v3.083h-1.01zm12.006-2.953c0-.665-.185-1.2-.554-1.603-.37-.409-.856-.613-1.46-.613s-1.076.185-1.415.554c-.339.37-.508.88-.508 1.532 0 .734.172 1.31.515 1.727.343.413.817.62 1.421.62.626 0 1.114-.196 1.466-.587.357-.391.535-.935.535-1.63zm.991-7.15V42.59h-.991v-1.082c-.235.43-.539.76-.913.99-.373.23-.791.346-1.251.346-.856 0-1.547-.293-2.073-.88-.521-.59-.782-1.37-.782-2.34 0-.978.256-1.758.769-2.34.513-.582 1.195-.873 2.047-.873.495 0 .925.113 1.29.339.365.221.661.554.887.997v-5.26h1.017zm1.453 9.099l.873-.587c.166.318.374.557.626.717.252.157.55.235.893.235.335 0 .604-.083.808-.248a.79.79 0 00.313-.652.694.694 0 00-.215-.52c-.139-.14-.38-.268-.723-.386a6.037 6.037 0 00-.17-.058c-1.451-.5-2.177-1.126-2.177-1.877 0-.53.196-.963.587-1.297.391-.335.899-.502 1.525-.502.517 0 .96.104 1.33.313.369.204.634.495.795.873l-.828.508a1.382 1.382 0 00-.541-.632 1.508 1.508 0 00-.821-.221c-.3 0-.546.084-.737.254a.813.813 0 00-.28.639c0 .364.395.67 1.186.918.148.048.265.085.352.111.648.209 1.097.448 1.35.717.256.265.384.617.384 1.056 0 .565-.202 1.024-.606 1.375-.4.348-.923.522-1.571.522-.556 0-1.03-.104-1.421-.313a2.326 2.326 0 01-.932-.945z" fill="#CFCFCF"/></symbol><symbol fill="none" viewBox="0 0 881 933" id="decoration--products" xmlns="http://www.w3.org/2000/svg"><path opacity=".3" d="M91.948 378.343l1.001-4.008 95.127-351.294L19.184 65.116l.334 1.002 72.43 312.225zm93.124-352.296L91.948 369.994 21.52 66.786l163.552-40.74zm528.037 861.205l64.086-267.478h-1.335L512.842 638.14l1.335 1.67 198.932 247.442zm61.082-265.141l-62.417 260.466-195.26-242.434 257.677-18.032z" fill="#363636"/><path opacity=".3" d="M93.283 375.671L19.518 56.768l1.001 300.537 72.764 18.366zM21.521 75.134L90.613 373l-68.091-17.031-1.001-280.835zM881 688.563v-67.12l-13.017-21.705h-.668l-94.459 20.704L881 688.563zm-2.003-66.786v62.779l-100.801-63.113 88.785-19.702 12.016 20.036z" fill="#363636"/><path opacity=".3" d="M816.581 817.46L881 770.376v-84.484l-.334-.334-106.475-66.786.667 2.338 41.723 196.35zm62.416-48.086l-61.081 44.413-40.721-190.674 101.802 64.115v82.146zM881 625.451v-12.022l-18.692-19.368L881 625.451zm-2.003-11.354v4.007l-6.008-10.018 6.008 6.011zM866.314 933L881 909.291v-17.364L866.314 933zm12.683-24.377l-4.005 6.679 4.005-11.688v5.009zM506.834 322.242l123.164-169.636-.667-.668L477.795 0h-33.711l.333 1.336 62.417 320.906zm120.494-169.636L507.835 317.233 446.42 2.003h30.374l150.534 150.603zM881 180.656V85.152l-49.065 78.474L881 180.656zm-2.003-88.157v85.486l-44.058-15.361 44.058-70.125zM102.963 453.477l114.152-57.77-126.502-23.041 12.35 80.811zm107.81-56.768l-106.141 53.762-11.349-75.134 117.49 21.372z" fill="#363636"/><path opacity=".3" d="M547.222 420.418L508.17 318.569l-1.002.334-299.733 78.474 339.787 23.041zm-40.388-99.511l37.384 97.173-323.765-22.373 286.381-74.8zM185.74 26.38L230.132 0h-48.731l4.339 26.38zm37.049-24.376l-35.38 21.037-3.338-21.037h38.718zM-119 436.78l1.669-1.002 140.855-79.141L-119 267.478V436.78zm138.518-80.477l-136.515 76.804V271.151l136.515 85.152zm751.001 267.144l102.137-22.707-51.736-10.352-50.401 33.059zm92.123-22.707l-81.776 18.032 40.388-26.38 41.388 8.348z" fill="#363636"/><path opacity=".3" d="M775.526 622.445l47.397-30.721-276.702-173.31-1.336 1.67 230.641 202.361zm43.725-31.055l-43.391 28.384L555.9 426.763 819.251 591.39z" fill="#363636"/></symbol><symbol fill="none" viewBox="0 0 77 311" id="decoration--strips" xmlns="http://www.w3.org/2000/svg"><path d="M206.58 59.097L38.45 308.93l2.425 1.633L209.006 60.73l-2.426-1.633zM194.014 40.01L25.884 289.84l2.425 1.633 168.13-249.832-2.425-1.632zm-12.696-19.954l-168.1 249.862 2.426 1.632 168.1-249.862-2.426-1.632zM168.755.97L.655 250.832l2.426 1.632L171.18 2.602 168.755.97z" fill="#7F858A"/></symbol><symbol fill="none" viewBox="0 0 787 853" id="decoration--topLeft" xmlns="http://www.w3.org/2000/svg"><path d="M.5 853L787-346H-786L.5 853z" fill="#FFF735"/></symbol><symbol fill="none" viewBox="0 0 51 51" id="design-icon" xmlns="http://www.w3.org/2000/svg"><path d="M37.508 24.105l4.448-4.448L31.332 9.034l-4.447 4.448-11.729-11.7a5.677 5.677 0 00-8.017 0L1.756 7.164a5.677 5.677 0 000 8.017l11.7 11.7L0 40.367V50.99h10.624l13.484-13.485 11.7 11.7c2.692 2.691 6.318 1.7 8.018 0l5.382-5.383a5.677 5.677 0 000-8.017l-11.7-11.7zm-20-1.246l-11.729-11.7 5.354-5.383 3.598 3.598-3.342 3.371 3.994 3.995 3.371-3.372 4.108 4.108-5.354 5.383zM39.83 45.21l-11.7-11.7 5.383-5.383 4.108 4.108-3.372 3.371 3.995 3.994 3.371-3.37 3.598 3.597-5.383 5.383z" fill="#171717"/><path d="M50.172 11.442a2.821 2.821 0 000-3.994l-6.63-6.63c-1.331-1.331-3.172-.821-3.994 0l-5.184 5.185 10.623 10.623 5.185-5.184z" fill="#000"/></symbol><symbol fill="none" viewBox="0 0 40 45" id="development-icon" xmlns="http://www.w3.org/2000/svg"><path d="M35.556 4.5h-9.29C25.334 1.89 22.89 0 20 0c-2.889 0-5.333 1.89-6.267 4.5H4.444c-.31 0-.6.022-.888.09a4.45 4.45 0 00-2.245 1.237c-.4.405-.733.9-.955 1.44A4.38 4.38 0 000 9v31.5c0 .608.133 1.215.356 1.755.222.54.555 1.012.955 1.44a4.446 4.446 0 002.245 1.237c.288.045.577.068.888.068h31.112C38 45 40 42.975 40 40.5V9c0-2.475-2-4.5-4.444-4.5zM17.778 29.633l-3.134 3.195-7.977-8.078 7.977-8.078 3.134 3.195-4.822 4.883 4.822 4.883zM20 7.313c-.911 0-1.667-.765-1.667-1.688 0-.923.756-1.688 1.667-1.688s1.667.765 1.667 1.688c0 .923-.756 1.688-1.667 1.688zm5.356 25.515l-3.134-3.196 4.822-4.882-4.822-4.883 3.134-3.195 7.977 8.078-7.977 8.078z" fill="#171717"/></symbol><symbol fill="none" viewBox="0 0 52 52" id="marketing-icon" xmlns="http://www.w3.org/2000/svg"><path d="M46.222 0H5.778C2.6 0 0 2.6 0 5.778v40.444C0 49.4 2.6 52 5.778 52h40.444C49.4 52 52 49.4 52 46.222V5.778C52 2.6 49.4 0 46.222 0zM26 5.778h4.333v8.666l5.778-8.666h4.911l-5.778 8.666 5.778 8.667h-4.91l-5.779-8.667v8.667H26V5.778zm-14.444 6.5h7.222V10.11h-7.222V5.778H23.11V16.61h-7.22v2.167h7.222v4.333H11.556V12.278zm34.666 16.61L28.89 46.223 17.333 34.667 5.778 46.222V39l11.555-11.556L28.89 39l17.333-17.333v7.222z" fill="#171717"/></symbol><symbol fill="none" viewBox="0 0 51 51" id="product-icon" xmlns="http://www.w3.org/2000/svg"><rect width="51" height="51" rx="6" fill="#171717"/><path d="M32.475 25c2.139 0 3.86-1.76 3.86-3.929 0-2.168-1.721-3.928-3.86-3.928S28.6 18.903 28.6 21.07c0 2.17 1.736 3.93 3.875 3.93zM20.85 23.429c2.573 0 4.634-2.106 4.634-4.715 0-2.608-2.061-4.714-4.634-4.714-2.573 0-4.65 2.106-4.65 4.714 0 2.609 2.077 4.715 4.65 4.715zm11.625 4.714c-2.837 0-8.525 1.446-8.525 4.321V36H41v-3.536c0-2.875-5.688-4.321-8.525-4.321zM20.85 26.57c-3.612 0-10.85 1.839-10.85 5.5V36h10.85v-3.536c0-1.335.511-3.677 3.673-5.453-1.348-.282-2.65-.44-3.673-.44z" fill="#FFF735"/></symbol><symbol fill="none" viewBox="0 0 51 51" id="seo-icon" xmlns="http://www.w3.org/2000/svg"><rect width="51" height="51" rx="6" fill="#171717"/><path d="M26.637 30.667h2.961L22.36 12.25h-2.635l-7.239 18.417h2.96l1.587-4.25h7.99l1.616 4.25zm-8.528-7.084l2.933-7.82 2.932 7.82H18.11zm21.477.836L28.125 35.88l-5.2-5.213-1.997 1.997 7.211 7.211 13.444-13.458-1.997-1.998z" fill="#fff"/></symbol><symbol fill="none" viewBox="0 0 174 964" id="steps-black-big" xmlns="http://www.w3.org/2000/svg"><path d="M-112.936 964L-470 404.786-190.661 0 174 565.063-112.936 964z" fill="#171717"/></symbol><symbol fill="none" viewBox="0 0 43 34" id="steps-triangle" xmlns="http://www.w3.org/2000/svg"><path d="M21.5 0L0 34h43L21.5 0z" fill="#171717"/></symbol><symbol fill="none" viewBox="0 0 227 964" id="steps-triangle-big" xmlns="http://www.w3.org/2000/svg"><path d="M357.064 964L0 404.786 279.339 0 644 565.063 357.064 964z" fill="#E9E9EB"/></symbol><symbol fill="none" viewBox="0 0 227 964" id="steps-triangle-border" xmlns="http://www.w3.org/2000/svg"><path d="M643.395 565.048L357.088 963.109.6 404.797 279.326.901l364.069 564.147z" stroke="#000"/></symbol><symbol fill="none" viewBox="0 0 43 34" id="steps-triangle-gray" xmlns="http://www.w3.org/2000/svg"><path d="M21.5 34L43 0H0l21.5 34z" fill="#E9E9EB"/></symbol><symbol fill="none" viewBox="0 0 186 148" id="steps-triangle-med" xmlns="http://www.w3.org/2000/svg"><path opacity=".2" d="M185.095 147.5H.905L93 .94l92.095 146.56z" fill="#fff" stroke="#000"/></symbol><symbol fill="none" viewBox="0 0 67 54" id="steps-triangle-yell" xmlns="http://www.w3.org/2000/svg"><path d="M33.5 54L67 0H0l33.5 54z" fill="#FFF735"/></symbol></svg>