<svg width="41" height="37" fill="none" xmlns="http://www.w3.org/2000/svg"><path d="M.225 18.726c0 3.031 2.96 5.861 7.627 7.456-.932 4.692-.167 8.474 2.388 9.947 2.627 1.515 6.539.466 10.252-2.78 3.62 3.115 7.278 4.341 9.831 2.863 2.624-1.519 3.422-5.557 2.464-10.395 4.861-1.607 7.58-4.02 7.58-7.091 0-2.962-2.966-5.523-7.57-7.108 1.031-5.038.158-8.728-2.503-10.263-2.565-1.479-6.266-.19-9.939 3.007-3.821-3.393-7.486-4.429-10.144-2.89C7.65 2.956 6.917 6.806 7.852 11.584 3.342 13.157.225 15.776.225 18.726z" fill="#fff"/><path d="M31.822 13.192c-.38-.13-.762-.251-1.147-.362.064-.26.123-.52.177-.783.869-4.217.3-7.614-1.639-8.732-1.86-1.072-4.901.046-7.973 2.719-.303.264-.598.536-.887.814-.194-.185-.39-.367-.591-.545-3.22-2.859-6.446-4.063-8.384-2.941C9.52 4.437 8.97 7.63 9.752 11.627c.078.396.165.79.263 1.181-.456.13-.897.268-1.32.415-3.773 1.316-6.184 3.378-6.184 5.517 0 2.21 2.588 4.426 6.519 5.77.319.108.64.208.964.3a23.31 23.31 0 00-.28 1.273c-.746 3.927-.163 7.045 1.69 8.114 1.914 1.104 5.126-.03 8.254-2.765.247-.216.495-.445.744-.685.313.302.634.595.963.879 3.03 2.607 6.023 3.66 7.874 2.588 1.912-1.107 2.534-4.456 1.727-8.532a21.61 21.61 0 00-.214-.953c.226-.066.447-.135.663-.207 4.087-1.354 6.746-3.543 6.746-5.782 0-2.147-2.488-4.223-6.339-5.548z" fill="#fff"/><path d="M30.936 23.077c-.195.064-.395.126-.599.187-.451-1.428-1.06-2.947-1.805-4.516a35.73 35.73 0 001.735-4.45c.364.105.718.216 1.06.334 3.299 1.135 5.31 2.814 5.31 4.108 0 1.378-2.172 3.167-5.701 4.337zm-1.464 2.9c.356 1.803.407 3.432.171 4.706-.212 1.144-.64 1.907-1.167 2.213-1.124.65-3.526-.195-6.117-2.425a21.789 21.789 0 01-.897-.817 35.766 35.766 0 002.988-3.794 35.533 35.533 0 004.829-.744c.072.293.137.58.193.862zm-14.807 6.807c-1.098.387-1.972.398-2.5.094-1.125-.649-1.592-3.152-.955-6.51.076-.398.163-.792.26-1.184 1.46.323 3.077.555 4.805.695a37.058 37.058 0 003.06 3.781c-.221.214-.448.422-.68.625-1.383 1.21-2.769 2.067-3.99 2.499zm-5.142-9.716c-1.739-.594-3.174-1.366-4.158-2.209-.885-.757-1.331-1.509-1.331-2.119 0-1.298 1.935-2.954 5.163-4.079.405-.14.815-.27 1.227-.386a36.53 36.53 0 001.738 4.502 37.074 37.074 0 00-1.76 4.567 18.773 18.773 0 01-.88-.276zm1.723-11.733c-.67-3.424-.225-6.007.895-6.655 1.193-.69 3.83.294 6.61 2.762.177.157.355.323.534.493a36.492 36.492 0 00-3.037 3.759 37.215 37.215 0 00-4.757.739c-.09-.364-.172-.73-.245-1.098zm15.378 3.797a48.498 48.498 0 00-1.084-1.783 33.21 33.21 0 013.25.568 32.5 32.5 0 01-1.14 3.07 53.286 53.286 0 00-1.026-1.855zm-6.271-6.108a32.45 32.45 0 012.098 2.532 44.855 44.855 0 00-4.214 0 33.58 33.58 0 012.116-2.532zm-6.311 6.118c-.35.607-.685 1.221-1.006 1.844a33.611 33.611 0 01-1.133-3.085 34.344 34.344 0 013.232-.555c-.379.59-.743 1.189-1.093 1.796zm1.125 9.1a32.435 32.435 0 01-3.285-.527 34.185 34.185 0 011.155-3.148 44.718 44.718 0 002.13 3.676zm5.228 4.322a34.224 34.224 0 01-2.145-2.567 52.851 52.851 0 004.238-.007 32.4 32.4 0 01-2.093 2.574zm7.269-8.051a32.338 32.338 0 011.197 3.136c-1.034.236-2.15.425-3.325.567.376-.598.741-1.203 1.094-1.815a48.37 48.37 0 001.034-1.888zM25.31 21.64c-.54.938-1.11 1.858-1.71 2.76a45.89 45.89 0 01-3.265.114 49.96 49.96 0 01-3.228-.102 43.18 43.18 0 01-3.263-5.636 42.778 42.778 0 013.245-5.626 43.174 43.174 0 016.498.001 45.93 45.93 0 011.718 2.743 49.71 49.71 0 011.537 2.86c-.477.98-.987 1.942-1.532 2.886zm3.142-17.007c1.193.689 1.657 3.465.907 7.106-.049.237-.102.473-.16.709a36.478 36.478 0 00-4.767-.753 35.779 35.779 0 00-3.013-3.761c.267-.258.54-.508.82-.752 2.632-2.29 5.092-3.195 6.213-2.549z" fill="#171717"/><path d="M20.336 15.557a3.183 3.183 0 110 6.366 3.183 3.183 0 010-6.366z" fill="#fff"/></svg>