<svg width="181" height="126" viewBox="0 0 181 126" fill="none" xmlns="http://www.w3.org/2000/svg">
<g clip-path="url(#clip0)" filter="url(#filter0_dd)">
<path d="M25.901 117.492C26.203 117.494 26.4666 117.379 26.6757 117.165C26.8838 116.951 26.998 116.678 27 116.365C27.004 115.738 26.5181 115.227 25.9161 115.223L6.71431 115.093L6.83955 95.1409C6.8436 94.5154 6.35774 94.0032 5.75573 94C5.1527 93.9958 4.65977 94.5007 4.65674 95.1262L4.52342 116.213C4.51938 116.838 5.00625 117.35 5.60826 117.355L25.901 117.492Z" fill="white"/>
<path d="M155.096 117.492C154.796 117.494 154.532 117.379 154.324 117.165C154.116 116.951 154.002 116.678 154 116.365C153.996 115.738 154.481 115.227 155.082 115.223L174.239 115.093L174.114 95.1409C174.11 94.5154 174.595 94.0032 175.196 94C175.797 93.9958 176.289 94.5007 176.293 95.1262L176.425 116.213C176.429 116.838 175.944 117.35 175.343 117.355L155.096 117.492Z" fill="white"/>
<path d="M155.096 0.562494C154.796 0.560589 154.532 0.670957 154.324 0.875151C154.116 1.07924 154.002 1.34008 154 1.639C153.996 2.23684 154.481 2.72573 155.082 2.72964L174.239 2.85404L174.114 21.9094C174.11 22.5072 174.595 22.9961 175.196 23C175.797 23.0039 176.289 22.5213 176.293 21.9236L176.425 1.78465C176.429 1.1868 175.944 0.697922 175.343 0.694013L155.096 0.562494Z" fill="white"/>
<path d="M25.901 0.562494C26.203 0.560589 26.4666 0.670957 26.6757 0.875151C26.8838 1.07924 26.998 1.34008 27 1.639C27.004 2.23684 26.5181 2.72573 25.9161 2.72964L6.71431 2.85404L6.83955 21.9094C6.8436 22.5072 6.35774 22.9961 5.75573 23C5.1527 23.0039 4.65977 22.5213 4.65674 21.9236L4.52342 1.78465C4.51938 1.1868 5.00625 0.697922 5.60826 0.694013L25.901 0.562494Z" fill="white"/>
</g>
<defs>
<filter id="filter0_dd" x="0" y="0" width="181" height="126" filterUnits="userSpaceOnUse" color-interpolation-filters="sRGB">
<feFlood flood-opacity="0" result="BackgroundImageFix"/>
<feColorMatrix in="SourceAlpha" type="matrix" values="0 0 0 0 0 0 0 0 0 0 0 0 0 0 0 0 0 0 127 0"/>
<feOffset dy="4"/>
<feGaussianBlur stdDeviation="2"/>
<feColorMatrix type="matrix" values="0 0 0 0 0 0 0 0 0 0 0 0 0 0 0 0 0 0 0.25 0"/>
<feBlend mode="normal" in2="BackgroundImageFix" result="effect1_dropShadow"/>
<feColorMatrix in="SourceAlpha" type="matrix" values="0 0 0 0 0 0 0 0 0 0 0 0 0 0 0 0 0 0 127 0"/>
<feOffset dy="4"/>
<feGaussianBlur stdDeviation="2"/>
<feColorMatrix type="matrix" values="0 0 0 0 0 0 0 0 0 0 0 0 0 0 0 0 0 0 0.25 0"/>
<feBlend mode="normal" in2="effect1_dropShadow" result="effect2_dropShadow"/>
<feBlend mode="normal" in="SourceGraphic" in2="effect2_dropShadow" result="shape"/>
</filter>
<clipPath id="clip0">
<rect width="173" height="118" fill="white" transform="matrix(-1 0 0 1 177 0)"/>
</clipPath>
</defs>
</svg>
