<svg width="310" height="213" viewBox="0 0 310 213" fill="none" xmlns="http://www.w3.org/2000/svg">
<g clip-path="url(#clip0)">
<path d="M270.004 194.234C269.705 194.236 269.444 194.126 269.237 193.922C269.031 193.718 268.918 193.458 268.916 193.16C268.912 192.563 269.393 192.076 269.989 192.072L288.999 191.948L288.875 172.938C288.871 172.342 289.352 171.854 289.948 171.851C290.545 171.847 291.033 172.328 291.036 172.924L291.168 193.015C291.172 193.611 290.69 194.099 290.094 194.103L270.004 194.234Z" fill="white"/>
</g>
<g clip-path="url(#clip1)">
<path d="M39.0782 194.234C39.3764 194.236 39.638 194.126 39.8443 193.922C40.0507 193.718 40.1642 193.458 40.1661 193.16C40.17 192.563 39.6887 192.076 39.0923 192.072L20.083 191.948L20.2072 172.938C20.2111 172.342 19.7297 171.854 19.1333 171.851C18.5369 171.847 18.0492 172.328 18.0453 172.924L17.9141 193.015C17.9102 193.611 18.3916 194.099 18.988 194.103L39.0782 194.234Z" fill="white"/>
</g>
<g clip-path="url(#clip2)">
<path d="M39.0782 17.8485C39.3764 17.8466 39.638 17.9567 39.8443 18.1604C40.0507 18.364 40.1642 18.6242 40.1661 18.9224C40.17 19.5188 39.6887 20.0065 39.0923 20.0104L20.083 20.1345L20.2072 39.1438C20.2111 39.7401 19.7297 40.2278 19.1333 40.2317C18.5369 40.2356 18.0492 39.7542 18.0453 39.1579L17.9141 19.0677C17.9102 18.4713 18.3916 17.9836 18.988 17.9797L39.0782 17.8485Z" fill="white"/>
</g>
<g clip-path="url(#clip3)">
<path d="M270.004 17.8485C269.705 17.8466 269.444 17.9567 269.237 18.1604C269.031 18.364 268.918 18.6242 268.916 18.9224C268.912 19.5188 269.393 20.0065 269.989 20.0104L288.999 20.1345L288.875 39.1438C288.871 39.7401 289.352 40.2278 289.948 40.2317C290.545 40.2356 291.033 39.7542 291.036 39.1579L291.168 19.0677C291.172 18.4713 290.69 17.9836 290.094 17.9797L270.004 17.8485Z" fill="white"/>
</g>
<defs>
<clipPath id="clip0">
<rect width="34" height="34" fill="white" transform="translate(284.884 164) rotate(44.6258)"/>
</clipPath>
<clipPath id="clip1">
<rect width="34" height="34" fill="white" transform="matrix(-0.711709 0.702474 0.702474 0.711709 24.198 164)"/>
</clipPath>
<clipPath id="clip2">
<rect width="34" height="34" fill="white" transform="translate(24.198 48.0822) rotate(-135.374)"/>
</clipPath>
<clipPath id="clip3">
<rect width="34" height="34" fill="white" transform="matrix(0.711709 -0.702474 -0.702474 -0.711709 284.884 48.0822)"/>
</clipPath>
</defs>
</svg>
