<svg width="58" height="58" viewBox="0 0 58 58" fill="none" xmlns="http://www.w3.org/2000/svg">
<g clip-path="url(#clip0)">
<path d="M53.315 8.23845C50.2779 5.20135 46.2571 3.5414 41.9658 3.5414C37.6745 3.5414 33.6415 5.21365 30.6044 8.25074L29.0182 9.83692L27.4074 8.22615C24.3704 5.18906 20.325 3.50452 16.0337 3.50452C11.7547 3.50452 7.72167 5.17676 4.69687 8.20156C1.65977 11.2387 -0.0124727 15.2717 -0.000176812 19.563C-0.000176812 23.8543 1.68437 27.875 4.72146 30.9121L27.8132 54.0039C28.1329 54.3236 28.5633 54.4957 28.9813 54.4957C29.3994 54.4957 29.8297 54.3359 30.1494 54.0162L53.2904 30.9613C56.3275 27.9242 57.9997 23.8912 57.9997 19.5999C58.012 15.3086 56.3521 11.2755 53.315 8.23845ZM50.9542 28.6128L28.9813 50.4995L7.05769 28.5759C4.64768 26.1659 3.31972 22.969 3.31972 19.563C3.31972 16.157 4.63539 12.9601 7.04539 10.5624C9.4431 8.16467 12.64 6.83671 16.0337 6.83671C19.4397 6.83671 22.6489 8.16467 25.0589 10.5747L27.8378 13.3536C28.4895 14.0052 29.5346 14.0052 30.1863 13.3536L32.9406 10.5993C35.3506 8.18926 38.5599 6.8613 41.9535 6.8613C45.3472 6.8613 48.5441 8.18926 50.9542 10.587C53.3642 12.997 54.6798 16.1939 54.6798 19.5999C54.6921 23.0059 53.3642 26.2028 50.9542 28.6128Z" fill="white"/>
</g>
<defs>
<clipPath id="clip0">
<rect width="58" height="58" fill="white" transform="translate(-0.000244141)"/>
</clipPath>
</defs>
</svg>
