<svg width="44" height="44" viewBox="0 0 44 44" fill="none" xmlns="http://www.w3.org/2000/svg">
<path d="M22 0C9.86925 0 0 9.86925 0 22C0 34.1299 9.86925 44 22 44C34.1299 44 44 34.1299 44 22C44 9.86925 34.1316 0 22 0ZM27.4712 22.7745H23.892C23.892 28.493 23.892 35.5318 23.892 35.5318H18.5883C18.5883 35.5318 18.5883 28.5612 18.5883 22.7745H16.0671V18.2657H18.5883V15.3493C18.5883 13.2606 19.5808 9.99686 23.9407 9.99686L27.8709 10.0119V14.3887C27.8709 14.3887 25.4826 14.3887 25.0183 14.3887C24.5539 14.3887 23.8937 14.6209 23.8937 15.6169V18.2666H27.9347L27.4712 22.7745Z" fill="white" fill-opacity="0.8"/>
</svg>
