<svg width="124" height="40" fill="none" xmlns="http://www.w3.org/2000/svg"><circle cx="20" cy="20" r="20" fill="url(#paint0_linear)"/><path d="M34.098 17.547h-3.11c-.12-.8-.46-1.428-1.023-1.882-.564-.46-1.267-.69-2.11-.69-1.127 0-2.031.415-2.713 1.244-.677.824-1.016 1.993-1.016 3.508 0 1.553.341 2.735 1.023 3.544.687.805 1.582 1.208 2.685 1.208.819 0 1.513-.213 2.08-.64.569-.43.926-1.034 1.073-1.81l3.111.014a5.726 5.726 0 01-.952 2.514c-.525.786-1.24 1.423-2.145 1.91-.9.488-1.972.732-3.217.732-1.297 0-2.457-.294-3.48-.88-1.018-.588-1.823-1.438-2.415-2.55-.587-1.113-.88-2.46-.88-4.042 0-1.586.298-2.935.894-4.048.597-1.113 1.407-1.96 2.43-2.543 1.022-.587 2.173-.88 3.451-.88 1.122 0 2.133.208 3.033.625a5.504 5.504 0 012.216 1.804c.577.786.932 1.74 1.065 2.862zm5.28-5.093V27h-3.075V12.454h3.076zM41.909 27V12.454h5.74c1.652 0 2.933.431 3.842 1.293.913.862 1.37 2.015 1.37 3.459 0 .994-.222 1.844-.667 2.55-.44.705-1.075 1.235-1.904 1.59L53.38 27h-3.395l-2.756-5.156h-2.244V27H41.91zm3.076-7.628h2.088c1.747 0 2.62-.722 2.62-2.166 0-1.492-.877-2.237-2.634-2.237h-2.074v4.403zm22.884-1.825h-3.111c-.119-.8-.46-1.428-1.023-1.882-.563-.46-1.267-.69-2.11-.69-1.126 0-2.03.415-2.712 1.244-.678.824-1.016 1.993-1.016 3.508 0 1.553.34 2.735 1.023 3.544.686.805 1.581 1.208 2.684 1.208.82 0 1.513-.213 2.081-.64.569-.43.926-1.034 1.073-1.81l3.11.014a5.726 5.726 0 01-.951 2.514c-.526.786-1.24 1.423-2.145 1.91-.9.488-1.972.732-3.217.732-1.298 0-2.458-.294-3.48-.88-1.018-.588-1.823-1.438-2.415-2.55-.587-1.113-.88-2.46-.88-4.042 0-1.586.297-2.935.894-4.048.596-1.113 1.406-1.96 2.429-2.543 1.023-.587 2.173-.88 3.452-.88 1.122 0 2.133.208 3.032.625a5.504 5.504 0 012.216 1.804c.578.786.933 1.74 1.066 2.862zm11.21-5.093h3.054v9.617c0 1.098-.258 2.031-.774 2.798-.516.763-1.228 1.343-2.138 1.74-.904.398-1.943.597-3.117.597-1.175 0-2.216-.199-3.125-.597-.91-.397-1.622-.977-2.138-1.74-.511-.767-.767-1.7-.767-2.798v-9.617h3.075v9.51c0 .777.28 1.388.838 1.833.564.445 1.27.668 2.117.668.861 0 1.572-.223 2.13-.668.564-.445.846-1.056.846-1.832v-9.51zM84.663 27V12.454h3.075v12.01h6.236V27h-9.311zm14.225 0h-3.295l5.021-14.546h3.963L109.592 27h-3.296l-1.079-3.317h-5.249L98.888 27zm1.861-5.717h3.693l-1.789-5.505h-.114l-1.79 5.505zM111.342 27V12.454h5.739c1.652 0 2.933.431 3.842 1.293.914.862 1.371 2.015 1.371 3.459 0 .994-.223 1.844-.668 2.55-.44.705-1.074 1.235-1.903 1.59L122.812 27h-3.394l-2.756-5.156h-2.244V27h-3.076zm3.076-7.628h2.088c1.747 0 2.62-.722 2.62-2.166 0-1.492-.878-2.237-2.635-2.237h-2.073v4.403z" fill="#1C2160"/><defs><linearGradient id="paint0_linear" x1="-16" y1="-13.5" x2="20" y2="40" gradientUnits="userSpaceOnUse"><stop stop-color="#FA594F"/><stop offset="1" stop-color="#8A51FB" stop-opacity="0"/></linearGradient></defs></svg>