<svg width="24" height="18" fill="none" xmlns="http://www.w3.org/2000/svg"><path d="M24 1a1 1 0 00-1-1H10v10H0v7a1 1 0 001 1h22a1 1 0 001-1V1z" fill="#B41F30"/><path d="M24 2H10v2h14V2zm0 4H10v2h14V6zM0 10v2h24v-2H0zm24 4H0v2h24v-2z" fill="#E6E6E6"/><path d="M10 10H0V1a1 1 0 011-1h9v10z" fill="#00256A"/><path d="M5 3.961l-.316.684h-.752l.55.57-.203.824L5 5.63l.722.409-.203-.824.55-.57h-.753L5 3.961zM2.553 1.514l-.316.685h-.752l.55.57-.203.823.721-.409.722.41-.203-.825.55-.57h-.753l-.316-.683zm4.893 0l.316.685h.752l-.55.57.204.823-.722-.409-.722.41.204-.825-.55-.57h.753l.315-.683zM2.553 8.486L2.237 7.8h-.752l.55-.57-.203-.824.721.41.722-.41-.203.824.55.57h-.753l-.316.684zm4.893 0l.316-.685h.752l-.55-.57.204-.824-.722.41-.722-.41.204.824-.55.57h.753l.315.684z" fill="#fff"/></svg>