<?xml version="1.0" encoding="utf-8"?><svg xmlns="http://www.w3.org/2000/svg" xmlns:xlink="http://www.w3.org/1999/xlink"><symbol fill="none" viewBox="0 0 51 51" id="branding-icon" xmlns="http://www.w3.org/2000/svg"><path d="M51 13.91V0H37.09v4.636H13.91V0H0v13.91h4.636v23.18H0V51h13.91v-4.636h23.18V51H51V37.09h-4.636V13.91H51zM4.636 4.635h4.637v4.637H4.636V4.636zm4.637 41.728H4.636v-4.637h4.637v4.637zm27.818-4.637H13.909V37.09H9.273V13.909h4.636V9.273h23.182v4.636h4.636v23.182h-4.636v4.636zm9.273 4.637h-4.637v-4.637h4.637v4.637zm-4.637-37.09V4.636h4.637v4.637h-4.637zM29.511 30.136H21.42l-1.692 4.637h-3.756l7.882-20.864H27.1l7.905 20.864h-3.778l-1.715-4.637zm-7.048-2.92h6.05l-3.013-8.88-3.037 8.88z" fill="#171717"/></symbol><symbol fill="none" viewBox="0 0 77 311" id="decoration--strips" xmlns="http://www.w3.org/2000/svg"><path d="M206.58 59.097L38.45 308.93l2.425 1.633L209.006 60.73l-2.426-1.633zM194.014 40.01L25.884 289.84l2.425 1.633 168.13-249.832-2.425-1.632zm-12.696-19.954l-168.1 249.862 2.426 1.632 168.1-249.862-2.426-1.632zM168.755.97L.655 250.832l2.426 1.632L171.18 2.602 168.755.97z" fill="#7F858A"/></symbol><symbol fill="none" viewBox="0 0 787 853" id="decoration--topLeft" xmlns="http://www.w3.org/2000/svg"><path d="M.5 853L787-346H-786L.5 853z" fill="#FFF735"/></symbol><symbol fill="none" viewBox="0 0 51 51" id="design-icon" xmlns="http://www.w3.org/2000/svg"><path d="M37.508 24.105l4.448-4.448L31.332 9.034l-4.447 4.448-11.729-11.7a5.677 5.677 0 00-8.017 0L1.756 7.164a5.677 5.677 0 000 8.017l11.7 11.7L0 40.367V50.99h10.624l13.484-13.485 11.7 11.7c2.692 2.691 6.318 1.7 8.018 0l5.382-5.383a5.677 5.677 0 000-8.017l-11.7-11.7zm-20-1.246l-11.729-11.7 5.354-5.383 3.598 3.598-3.342 3.371 3.994 3.995 3.371-3.372 4.108 4.108-5.354 5.383zM39.83 45.21l-11.7-11.7 5.383-5.383 4.108 4.108-3.372 3.371 3.995 3.994 3.371-3.37 3.598 3.597-5.383 5.383z" fill="#171717"/><path d="M50.172 11.442a2.821 2.821 0 000-3.994l-6.63-6.63c-1.331-1.331-3.172-.821-3.994 0l-5.184 5.185 10.623 10.623 5.185-5.184z" fill="#000"/></symbol><symbol fill="none" viewBox="0 0 40 45" id="development-icon" xmlns="http://www.w3.org/2000/svg"><path d="M35.556 4.5h-9.29C25.334 1.89 22.89 0 20 0c-2.889 0-5.333 1.89-6.267 4.5H4.444c-.31 0-.6.022-.888.09a4.45 4.45 0 00-2.245 1.237c-.4.405-.733.9-.955 1.44A4.38 4.38 0 000 9v31.5c0 .608.133 1.215.356 1.755.222.54.555 1.012.955 1.44a4.446 4.446 0 002.245 1.237c.288.045.577.068.888.068h31.112C38 45 40 42.975 40 40.5V9c0-2.475-2-4.5-4.444-4.5zM17.778 29.633l-3.134 3.195-7.977-8.078 7.977-8.078 3.134 3.195-4.822 4.883 4.822 4.883zM20 7.313c-.911 0-1.667-.765-1.667-1.688 0-.923.756-1.688 1.667-1.688s1.667.765 1.667 1.688c0 .923-.756 1.688-1.667 1.688zm5.356 25.515l-3.134-3.196 4.822-4.882-4.822-4.883 3.134-3.195 7.977 8.078-7.977 8.078z" fill="#171717"/></symbol><symbol fill="none" viewBox="0 0 52 52" id="marketing-icon" xmlns="http://www.w3.org/2000/svg"><path d="M46.222 0H5.778C2.6 0 0 2.6 0 5.778v40.444C0 49.4 2.6 52 5.778 52h40.444C49.4 52 52 49.4 52 46.222V5.778C52 2.6 49.4 0 46.222 0zM26 5.778h4.333v8.666l5.778-8.666h4.911l-5.778 8.666 5.778 8.667h-4.91l-5.779-8.667v8.667H26V5.778zm-14.444 6.5h7.222V10.11h-7.222V5.778H23.11V16.61h-7.22v2.167h7.222v4.333H11.556V12.278zm34.666 16.61L28.89 46.223 17.333 34.667 5.778 46.222V39l11.555-11.556L28.89 39l17.333-17.333v7.222z" fill="#171717"/></symbol><symbol fill="none" viewBox="0 0 41 41" id="product-icon" xmlns="http://www.w3.org/2000/svg"><rect width="41" height="41" rx="6" fill="#171717"/><path d="M26.107 20.098c1.72 0 3.103-1.415 3.103-3.158 0-1.744-1.383-3.159-3.103-3.159-1.72 0-3.115 1.415-3.115 3.159 0 1.743 1.396 3.158 3.115 3.158zm-9.345-1.263c2.068 0 3.726-1.693 3.726-3.79s-1.658-3.79-3.726-3.79c-2.069 0-3.739 1.693-3.739 3.79s1.67 3.79 3.739 3.79zm9.345 3.79c-2.28 0-6.853 1.162-6.853 3.474v2.842H32.96V26.1c0-2.312-4.573-3.474-6.854-3.474zm-9.345-1.264c-2.904 0-8.723 1.478-8.723 4.422v3.158h8.723V26.1c0-1.074.41-2.956 2.953-4.384-1.084-.227-2.13-.354-2.953-.354z" fill="#F8F8F8"/></symbol><symbol fill="none" viewBox="0 0 51 51" id="seo-icon" xmlns="http://www.w3.org/2000/svg"><rect width="51" height="51" rx="6" fill="#171717"/><path d="M26.637 30.667h2.961L22.36 12.25h-2.635l-7.239 18.417h2.96l1.587-4.25h7.99l1.616 4.25zm-8.528-7.084l2.933-7.82 2.932 7.82H18.11zm21.477.836L28.125 35.88l-5.2-5.213-1.997 1.997 7.211 7.211 13.444-13.458-1.997-1.998z" fill="#fff"/></symbol><symbol fill="none" viewBox="0 0 174 964" id="steps-black-big" xmlns="http://www.w3.org/2000/svg"><path d="M-112.936 964L-470 404.786-190.661 0 174 565.063-112.936 964z" fill="#171717"/></symbol><symbol fill="none" viewBox="0 0 43 34" id="steps-triangle" xmlns="http://www.w3.org/2000/svg"><path d="M21.5 0L0 34h43L21.5 0z" fill="#171717"/></symbol><symbol fill="none" viewBox="0 0 227 964" id="steps-triangle-big" xmlns="http://www.w3.org/2000/svg"><path d="M357.064 964L0 404.786 279.339 0 644 565.063 357.064 964z" fill="#E9E9EB"/></symbol><symbol fill="none" viewBox="0 0 227 964" id="steps-triangle-border" xmlns="http://www.w3.org/2000/svg"><path d="M643.395 565.048L357.088 963.109.6 404.797 279.326.901l364.069 564.147z" stroke="#000"/></symbol><symbol fill="none" viewBox="0 0 43 34" id="steps-triangle-gray" xmlns="http://www.w3.org/2000/svg"><path d="M21.5 34L43 0H0l21.5 34z" fill="#E9E9EB"/></symbol><symbol fill="none" viewBox="0 0 186 148" id="steps-triangle-med" xmlns="http://www.w3.org/2000/svg"><path opacity=".2" d="M185.095 147.5H.905L93 .94l92.095 146.56z" fill="#fff" stroke="#000"/></symbol><symbol fill="none" viewBox="0 0 67 54" id="steps-triangle-yell" xmlns="http://www.w3.org/2000/svg"><path d="M33.5 54L67 0H0l33.5 54z" fill="#FFF735"/></symbol></svg>