<svg width="23" height="23" viewBox="0 0 23 23" fill="none" xmlns="http://www.w3.org/2000/svg">
<g clip-path="url(#clip0)">
<path d="M22.4844 18.1768L18.9324 14.6244C18.2249 13.9197 17.0533 13.9411 16.3211 14.6735L14.5316 16.4626C14.4186 16.4003 14.3015 16.3353 14.1785 16.2662C13.0484 15.6401 11.5018 14.7818 9.87422 13.1531C8.24185 11.5209 7.38284 9.97187 6.75478 8.84109C6.6885 8.72129 6.625 8.60579 6.56229 8.4961L7.76332 7.29686L8.35378 6.70567C9.08704 5.97221 9.10726 4.80092 8.40143 4.09423L4.84944 0.541447C4.1436 -0.164259 2.97145 -0.14285 2.23819 0.590608L1.23712 1.59743L1.26448 1.62459C0.928806 2.0529 0.648308 2.54689 0.439569 3.07961C0.247152 3.58669 0.127354 4.07057 0.0725759 4.55545C-0.396441 8.4437 1.38038 11.9973 6.20244 16.8194C12.868 23.4845 18.2395 22.981 18.4713 22.9564C18.976 22.8961 19.4597 22.7755 19.9512 22.5846C20.4793 22.3783 20.973 22.0982 21.401 21.7632L21.4229 21.7827L22.437 20.7896C23.1688 20.0563 23.1899 18.8846 22.4844 18.1768Z" fill="#E4E3E3"/>
</g>
<defs>
<clipPath id="clip0">
<rect width="23" height="23" fill="white"/>
</clipPath>
</defs>
</svg>
