<svg width="186" height="283" viewBox="0 0 186 283" fill="none" xmlns="http://www.w3.org/2000/svg">
<g clip-path="url(#clip0)" filter="url(#filter0_dd)">
<path d="M4.76591 21.996C4.76391 22.295 4.87391 22.556 5.07791 22.763C5.28191 22.969 5.5419 23.0821 5.8399 23.0841C6.4369 23.0881 6.9239 22.607 6.9279 22.011L7.05191 3.00103L26.0619 3.12503C26.6579 3.12903 27.1459 2.64803 27.1489 2.05203C27.1529 1.45503 26.6719 0.967015 26.0759 0.964015L5.9849 0.832026C5.3889 0.828026 4.90091 1.31003 4.89691 1.90603L4.76591 21.996Z" fill="white"/>
<path d="M4.76591 252.922C4.76391 252.624 4.87391 252.362 5.07791 252.156C5.28191 251.949 5.5419 251.836 5.8399 251.834C6.4369 251.83 6.9239 252.311 6.9279 252.908L7.05191 271.917L26.0619 271.793C26.6579 271.789 27.1459 272.27 27.1489 272.867C27.1529 273.463 26.6719 273.951 26.0759 273.955L5.9849 274.086C5.3889 274.09 4.90091 273.608 4.89691 273.012L4.76591 252.922Z" fill="white"/>
<path d="M181.152 252.922C181.153 252.624 181.043 252.362 180.84 252.156C180.636 251.949 180.376 251.836 180.078 251.834C179.481 251.83 178.994 252.311 178.99 252.908L178.866 271.917L159.856 271.793C159.26 271.789 158.772 272.27 158.768 272.867C158.764 273.463 159.246 273.951 159.842 273.955L179.932 274.086C180.529 274.09 181.016 273.608 181.02 273.012L181.152 252.922Z" fill="white"/>
<path d="M181.152 21.996C181.153 22.295 181.043 22.556 180.84 22.763C180.636 22.969 180.376 23.0821 180.078 23.0841C179.481 23.0881 178.994 22.607 178.99 22.011L178.866 3.00103L159.856 3.12503C159.26 3.12903 158.772 2.64803 158.768 2.05203C158.764 1.45503 159.246 0.967015 159.842 0.964015L179.932 0.832026C180.529 0.828026 181.016 1.31003 181.02 1.90603L181.152 21.996Z" fill="white"/>
</g>
<defs>
<filter id="filter0_dd" x="0" y="0" width="186" height="283" filterUnits="userSpaceOnUse" color-interpolation-filters="sRGB">
<feFlood flood-opacity="0" result="BackgroundImageFix"/>
<feColorMatrix in="SourceAlpha" type="matrix" values="0 0 0 0 0 0 0 0 0 0 0 0 0 0 0 0 0 0 127 0"/>
<feOffset dy="4"/>
<feGaussianBlur stdDeviation="2"/>
<feColorMatrix type="matrix" values="0 0 0 0 0 0 0 0 0 0 0 0 0 0 0 0 0 0 0.25 0"/>
<feBlend mode="normal" in2="BackgroundImageFix" result="effect1_dropShadow"/>
<feColorMatrix in="SourceAlpha" type="matrix" values="0 0 0 0 0 0 0 0 0 0 0 0 0 0 0 0 0 0 127 0"/>
<feOffset dy="4"/>
<feGaussianBlur stdDeviation="2"/>
<feColorMatrix type="matrix" values="0 0 0 0 0 0 0 0 0 0 0 0 0 0 0 0 0 0 0.25 0"/>
<feBlend mode="normal" in2="effect1_dropShadow" result="effect2_dropShadow"/>
<feBlend mode="normal" in="SourceGraphic" in2="effect2_dropShadow" result="shape"/>
</filter>
<clipPath id="clip0">
<rect width="275" height="178" fill="white" transform="matrix(0 -1 -1 0 182 275)"/>
</clipPath>
</defs>
</svg>
