<svg width="310" height="213" viewBox="0 0 310 213" fill="none" xmlns="http://www.w3.org/2000/svg">
<g clip-path="url(#clip0)">
<path d="M180.315 86.2384C177.278 83.2014 173.257 81.5414 168.966 81.5414C164.675 81.5414 160.641 83.2136 157.604 86.2507L156.018 87.8369L154.407 86.2262C151.37 83.1891 147.325 81.5045 143.034 81.5045C138.755 81.5045 134.722 83.1768 131.697 86.2016C128.66 89.2387 126.988 93.2717 127 97.563C127 101.854 128.684 105.875 131.721 108.912L154.813 132.004C155.133 132.324 155.563 132.496 155.981 132.496C156.399 132.496 156.83 132.336 157.149 132.016L180.29 108.961C183.327 105.924 185 101.891 185 97.5999C185.012 93.3086 183.352 89.2755 180.315 86.2384ZM177.954 106.613L155.981 128.5L134.058 106.576C131.648 104.166 130.32 100.969 130.32 97.563C130.32 94.157 131.635 90.9601 134.045 88.5624C136.443 86.1647 139.64 84.8367 143.034 84.8367C146.44 84.8367 149.649 86.1647 152.059 88.5747L154.838 91.3536C155.489 92.0052 156.535 92.0052 157.186 91.3536L159.941 88.5993C162.351 86.1893 165.56 84.8613 168.954 84.8613C172.347 84.8613 175.544 86.1893 177.954 88.587C180.364 90.997 181.68 94.1939 181.68 97.5999C181.692 101.006 180.364 104.203 177.954 106.613Z" fill="white"/>
</g>
<g clip-path="url(#clip1)">
<path d="M270.004 194.234C269.705 194.236 269.444 194.126 269.237 193.922C269.031 193.718 268.918 193.458 268.916 193.16C268.912 192.563 269.393 192.076 269.989 192.072L288.999 191.948L288.875 172.938C288.871 172.342 289.352 171.854 289.948 171.851C290.545 171.847 291.033 172.328 291.036 172.924L291.168 193.015C291.172 193.611 290.69 194.099 290.094 194.103L270.004 194.234Z" fill="white"/>
</g>
<g clip-path="url(#clip2)">
<path d="M39.0782 194.234C39.3764 194.236 39.638 194.126 39.8443 193.922C40.0507 193.718 40.1642 193.458 40.1661 193.16C40.17 192.563 39.6887 192.076 39.0923 192.072L20.083 191.948L20.2072 172.938C20.2111 172.342 19.7297 171.854 19.1333 171.851C18.5369 171.847 18.0492 172.328 18.0453 172.924L17.9141 193.015C17.9102 193.611 18.3916 194.099 18.988 194.103L39.0782 194.234Z" fill="white"/>
</g>
<g clip-path="url(#clip3)">
<path d="M39.0782 17.8485C39.3764 17.8466 39.638 17.9567 39.8443 18.1604C40.0507 18.364 40.1642 18.6242 40.1661 18.9224C40.17 19.5188 39.6887 20.0065 39.0923 20.0104L20.083 20.1345L20.2072 39.1438C20.2111 39.7401 19.7297 40.2278 19.1333 40.2317C18.5369 40.2356 18.0492 39.7542 18.0453 39.1579L17.9141 19.0677C17.9102 18.4713 18.3916 17.9836 18.988 17.9797L39.0782 17.8485Z" fill="white"/>
</g>
<g clip-path="url(#clip4)">
<path d="M270.004 17.8485C269.705 17.8466 269.444 17.9567 269.237 18.1604C269.031 18.364 268.918 18.6242 268.916 18.9224C268.912 19.5188 269.393 20.0065 269.989 20.0104L288.999 20.1345L288.875 39.1438C288.871 39.7401 289.352 40.2278 289.948 40.2317C290.545 40.2356 291.033 39.7542 291.036 39.1579L291.168 19.0677C291.172 18.4713 290.69 17.9836 290.094 17.9797L270.004 17.8485Z" fill="white"/>
</g>
<defs>
<clipPath id="clip0">
<rect width="58" height="58" fill="white" transform="translate(127 78)"/>
</clipPath>
<clipPath id="clip1">
<rect width="34" height="34" fill="white" transform="translate(284.884 164) rotate(44.6258)"/>
</clipPath>
<clipPath id="clip2">
<rect width="34" height="34" fill="white" transform="matrix(-0.711709 0.702474 0.702474 0.711709 24.198 164)"/>
</clipPath>
<clipPath id="clip3">
<rect width="34" height="34" fill="white" transform="translate(24.198 48.0822) rotate(-135.374)"/>
</clipPath>
<clipPath id="clip4">
<rect width="34" height="34" fill="white" transform="matrix(0.711709 -0.702474 -0.702474 -0.711709 284.884 48.0822)"/>
</clipPath>
</defs>
</svg>
