<svg width="54" height="54" viewBox="0 0 54 54" fill="none" xmlns="http://www.w3.org/2000/svg">
<path d="M45.6764 16.1049C45.4416 9.27692 41.4964 3.91845 34.8539 1.40368C32.4324 0.485356 29.7167 0 26.9999 0C24.2839 0 21.5686 0.485502 19.149 1.40339C12.5062 3.91787 8.5605 9.27634 8.32366 16.1049C8.00831 25.2656 13.7859 32.7615 18.0098 38.2414C18.7204 39.161 20.5842 41.706 20.603 41.7317L21.163 42.4965H32.8378L33.3978 41.7316C33.4165 41.7059 35.2796 39.161 35.9916 38.2395C40.2121 32.7655 45.9921 25.2684 45.6764 16.1049ZM20.534 4.87647C21.9672 4.33931 23.529 3.98543 25.1312 3.82958V36.4876C20.4349 24.8089 19.3682 16.9662 19.3446 12.3214C19.3224 7.98488 20.18 5.65295 20.534 4.87647ZM28.8688 36.4879V3.82944C30.4704 3.98514 32.032 4.33873 33.4657 4.87574C33.8197 5.65149 34.6778 7.98342 34.6556 12.3213C34.632 16.9662 33.5652 24.809 28.8688 36.4879ZM12.0593 16.234C12.2008 12.1483 13.9204 9.41716 15.9355 7.60853C15.7542 8.76997 15.6265 10.1468 15.6085 11.7612C15.5344 18.4454 17.2928 26.5097 20.8399 35.7904C16.9797 30.7813 11.7929 23.9663 12.0593 16.234ZM33.1604 35.7904C36.7076 26.5097 38.4659 18.4454 38.3916 11.7611C38.3738 10.1459 38.246 8.76866 38.0643 7.60678C40.0802 9.41526 41.8005 12.1469 41.9409 16.2337C42.2074 23.9672 37.0206 30.7823 33.1604 35.7904Z" fill="white" fill-opacity="0.7"/>
<path d="M32.1303 44.3344H21.8699C21.2626 44.3344 20.7705 44.8266 20.7705 45.4336V52.9006C20.7705 53.5077 21.2627 53.9999 21.8699 53.9999H32.1303C32.7373 53.9999 33.2297 53.5077 33.2297 52.9006V45.4336C33.2295 44.8266 32.7373 44.3344 32.1303 44.3344Z" fill="white" fill-opacity="0.7"/>
</svg>
