<svg width="43" height="43" viewBox="0 0 43 43" fill="none" xmlns="http://www.w3.org/2000/svg">
<path d="M22.0907 0.803304C10.8244 0.361487 1.24496 9.21791 0.803141 20.4843C0.361324 31.7506 9.21775 41.33 20.4841 41.7718C31.7504 42.2136 41.3298 33.3572 41.7717 22.0909C42.2135 10.8245 33.357 1.24512 22.0907 0.803304ZM21.8497 6.94858C25.332 7.08514 27.8906 9.85253 27.754 13.3348C27.6174 16.8172 24.8501 19.3757 21.3677 19.2391C17.8854 19.1026 15.3269 16.3352 15.4634 12.8529C15.6 9.37054 18.3674 6.81202 21.8497 6.94858ZM20.709 36.0362C15.588 35.8354 11.1858 32.9958 8.67552 28.9993C8.83618 24.9024 17.1182 22.9705 21.2151 23.1311C25.3119 23.2918 33.4173 25.8664 33.2566 29.9632C30.441 33.7508 25.8301 36.2371 20.709 36.0362Z" fill="white" fill-opacity="0.8"/>
</svg>
