<svg width="272" height="53" fill="none" xmlns="http://www.w3.org/2000/svg"><g clip-path="url(#clip0)"><path d="M63.269 52.92L10.654 53C4.806 53.008.057 47.947.046 41.693L0 11.417C-.01 5.163 4.725.086 10.573.079l52.614-.08c5.848-.008 10.599 5.054 10.608 11.306l.053 30.278c0 6.253-4.73 11.328-10.58 11.338z" fill="#CFCFCF"/><path d="M16.308 40.06c-1.162 0-2.328-.436-3.34-1.306l-.027-.024-.354-.34a4.233 4.233 0 01-.24-.25l-.471-.535-.041-.051a2.53 2.53 0 00-.858-.744l-.346-.179a2.51 2.51 0 00-.35-.149l-.489-.159a35.33 35.33 0 01-3.622-1.316c-.805-.35-1.379-1.234-1.496-2.306-.027-.24-.055-.464-.087-.67a5.227 5.227 0 01.173-2.377c.316-.98.762-2.316 1.103-3.123a5.387 5.387 0 011.277-1.866c2.887-2.66 6.617-3.104 10.222-3.534 1.89-.225 3.672-.436 5.294-.953 1.96-.626 3.71-1.812 5.564-3.071 2.424-1.647 4.93-3.348 7.947-3.714 5.022-.605 12.029-1.015 16.893.48.953.292 2.334 1.1 3.944 2.035 3.214 1.875 8.068 4.709 9.681 2.918a.558.558 0 01.544-.2c.31.073.524.403.528.788.015 1.499.408 3.173.798 4.792.272 1.142.552 2.322.711 3.475a8.144 8.144 0 01-.087 2.71 35.247 35.247 0 00-.329 1.825 1.615 1.615 0 01-.745 1.214c-1.081.61-3.737 1.04-4.037 1.086l-.944.157a4.257 4.257 0 00-1.525.56c-.08.051-.154.109-.223.173a4.017 4.017 0 00-.746.897 7.38 7.38 0 01-.253.384c-1.088 1.522-2.659 3.23-5.104 2.916-1.545-.199-2.312-1.117-3.061-2.01-.3-.372-.624-.724-.971-1.054-.238-.217-.73-.343-.985-.371h-.047c-.53-.111-1.598-.12-1.598-.12l-.46.008s-9.224.144-13.056.3c-1.24.051-2.137.089-2.558.098l-1.36.031c-2.367.058-4.813.117-7.125.016-.127 0-.39 0-.933.032-.959.066-1.858.504-2.602 1.266-.272.276-.496.515-.68.71-.15.162-.311.31-.484.447a4.868 4.868 0 01-3.045 1.103zm-2.61-2.634c1.515 1.295 3.465 1.356 4.97.156a2.74 2.74 0 00.331-.303c.19-.206.427-.455.706-.743.952-.978 2.108-1.538 3.336-1.622a10.82 10.82 0 011.045-.035c2.278.1 4.708.042 7.057-.014l1.36-.032c.408-.01 1.35-.049 2.539-.097 3.845-.158 9.935-.321 13.137-.3.058 0 .645-.017.868-.01.447.004.892.05 1.33.135.187.022 1.032.151 1.597.67.393.37.76.768 1.099 1.188.696.83 1.2 1.432 2.312 1.574 1.485.19 2.69-.526 4.032-2.396a5 5 0 00.196-.299 5.465 5.465 0 011.02-1.225c.123-.11.255-.21.394-.298a5.356 5.356 0 011.914-.706l.952-.158c.673-.105 2.406-.43 3.34-.804a.727.727 0 00.408-.565c.082-.478.199-1.08.292-1.552.136-.67.159-1.357.067-2.034-.145-1.058-.408-2.143-.68-3.287-.307-1.293-.624-2.62-.77-3.932-2.49 1.072-6.655-1.357-10.09-3.362-1.478-.863-2.874-1.677-3.704-1.933-4.692-1.44-11.547-1.035-16.471-.44-2.76.333-5.046 1.885-7.465 3.527-1.842 1.25-3.746 2.545-5.848 3.214-1.714.547-3.631.774-5.486.995-3.433.413-6.985.832-9.59 3.242-.392.374-.7.824-.903 1.322-.314.738-.737 2.026-1.044 2.964a3.22 3.22 0 00-.114 1.462c.035.23.068.48.097.747.052.466.301.85.65 1 1.652.719 2.874 1.17 3.354 1.241.49.134 1.005.333 1.005.333l.518.268c.507.271.946.65 1.284 1.11l.452.508c.051.059.106.115.162.169l.341.322z" fill="#fff"/><path d="M57.242 17.522c-6.892 3.552-36.267 19.364-27.776 18.855 6.743-.402 16.238-.292 18.224-1.042 4.088-1.54 7.24 3.575 7.24 3.575l4.631-2.276 2.312-2.277 6.006-1.971c.274-.09.512-.263.68-.493.17-.23.26-.507.261-.791V26.95a7.165 7.165 0 00-.771-3.246l-1.538-3.028-6.946-2.277-.622-.613a1.474 1.474 0 00-1.7-.264z" fill="#fff"/><path d="M91.402 41.172c.71-1.875 1.507-3.9 2.39-6.076a460.847 460.847 0 012.778-6.686 499.187 499.187 0 016.11-13.856c.512-1.12 1.096-1.899 1.75-2.334.655-.435 1.481-.652 2.478-.652.367 0 .732.042 1.088.126.321.073.635.172.94.294.272.113.498.218.68.317.112.053.219.116.32.188.453.785 1.042 1.948 1.768 3.49a211.179 211.179 0 012.348 5.194c.84 1.92 1.701 3.925 2.584 6.014.884 2.09 1.702 4.065 2.455 5.929.755 1.866 1.417 3.52 1.987 4.961.57 1.442.969 2.472 1.196 3.091h-5.633a32.638 32.638 0 01-.555-1.429 260.907 260.907 0 00-1.581-4.163c-.283-.73-.539-1.374-.768-1.934H99.43a245.57 245.57 0 00-2.91 7.526h-5.118zm20.627-11.943c-.4-1.036-.853-2.179-1.36-3.427a273.77 273.77 0 00-1.517-3.658 152.535 152.535 0 00-1.415-3.261 57.824 57.824 0 00-1.046-2.229 246.151 246.151 0 00-2.651 5.827 246.194 246.194 0 00-1.452 3.384 142.68 142.68 0 00-1.367 3.364h10.808zm30.32-16.82c0-.756.22-1.317.662-1.682.441-.365 1.076-.547 1.904-.546.476-.005.951.058 1.409.188.427.126.711.219.854.268v18.971c0 2.047-.292 3.827-.875 5.341-.583 1.514-1.388 2.776-2.415 3.785a9.895 9.895 0 01-3.63 2.276 13.333 13.333 0 01-4.569.757 12.452 12.452 0 01-4.634-.841 11.193 11.193 0 01-3.65-2.313 10.511 10.511 0 01-2.421-3.538 11.28 11.28 0 01-.874-4.457 11.753 11.753 0 01.832-4.48 10.758 10.758 0 012.305-3.531 10.378 10.378 0 013.46-2.313 11.257 11.257 0 014.341-.82c1.651 0 3.102.316 4.352.946 1.25.63 2.233 1.394 2.947 2.291l.002-10.302zm0 18.213a7.399 7.399 0 00-.491-2.692 6.854 6.854 0 00-1.347-2.187 6.061 6.061 0 00-2.063-1.454 7.077 7.077 0 00-5.36 0 6.496 6.496 0 00-2.071 1.43 6.153 6.153 0 00-1.345 2.166 7.751 7.751 0 00-.472 2.733c-.01.925.149 1.843.471 2.712a6.165 6.165 0 001.345 2.143 6.435 6.435 0 002.071 1.43 6.62 6.62 0 002.69.526 6.914 6.914 0 002.67-.505 6.098 6.098 0 002.07-1.387 6.37 6.37 0 001.346-2.143 7.61 7.61 0 00.486-2.776v.004zm26.69-18.213c0-.756.22-1.317.662-1.682.441-.365 1.076-.547 1.904-.546.477-.005.952.058 1.41.188.427.126.711.219.854.268v18.971c0 2.047-.292 3.827-.876 5.341a10.56 10.56 0 01-2.412 3.785 9.921 9.921 0 01-3.63 2.276 13.339 13.339 0 01-4.57.757 12.435 12.435 0 01-4.633-.841 11.216 11.216 0 01-3.66-2.318 10.528 10.528 0 01-2.413-3.533 11.28 11.28 0 01-.875-4.457 11.734 11.734 0 01.833-4.48 10.766 10.766 0 012.312-3.531 10.36 10.36 0 013.46-2.313 11.248 11.248 0 014.334-.82c1.652 0 3.102.316 4.352.946 1.251.63 2.233 1.394 2.946 2.291l.002-10.302zm0 18.213a7.356 7.356 0 00-.491-2.692 6.867 6.867 0 00-1.345-2.187 6.058 6.058 0 00-2.072-1.45 7.077 7.077 0 00-5.359 0 6.46 6.46 0 00-2.07 1.43 6.138 6.138 0 00-1.347 2.166 7.773 7.773 0 00-.469 2.733 7.61 7.61 0 00.469 2.712 6.163 6.163 0 001.347 2.143 6.421 6.421 0 002.07 1.43c.849.361 1.766.54 2.691.526a6.9 6.9 0 002.668-.505 6.094 6.094 0 002.072-1.387 6.385 6.385 0 001.345-2.143 7.591 7.591 0 00.491-2.78v.004zm9.31-8.332c0-.755.227-1.316.68-1.681.453-.365 1.08-.548 1.88-.547.483-.003.965.06 1.43.19.441.126.733.218.875.274v11.228c0 1.653.449 2.97 1.346 3.952.898.98 2.286 1.472 4.163 1.473 1.736 0 3.103-.498 4.101-1.494.997-.995 1.496-2.46 1.496-4.393v-9c0-.756.226-1.317.68-1.682.453-.365 1.079-.547 1.879-.546a5.2 5.2 0 011.431.189c.44.126.732.218.874.274v18.417c0 1.992-.272 3.68-.816 5.067a8.563 8.563 0 01-2.277 3.401 8.742 8.742 0 01-3.616 1.982 16.639 16.639 0 01-4.655.609c-1.07.006-2.14-.057-3.203-.189a29.619 29.619 0 01-2.584-.44 21.66 21.66 0 01-1.857-.485 13.058 13.058 0 01-1.026-.358c.229-.587.442-1.183.641-1.786.198-.604.398-1.2.598-1.788a14.93 14.93 0 002.477.74c.598.125 1.274.23 2.029.314.801.087 1.606.13 2.412.127a11.533 11.533 0 002.992-.358 5.089 5.089 0 002.243-1.241c.612-.588 1.082-1.365 1.409-2.333.327-.968.491-2.18.491-3.639-.57.815-1.46 1.467-2.67 1.957a10.541 10.541 0 01-3.993.735 12.236 12.236 0 01-3.799-.568 8.498 8.498 0 01-2.992-1.639 7.444 7.444 0 01-1.944-2.67c-.469-1.066-.703-2.286-.704-3.659l.009-10.432zm51.075 16.948c-.419.292-.854.56-1.303.804-.668.356-1.369.652-2.092.883-.97.31-1.962.55-2.969.715a23.108 23.108 0 01-3.885.294 17.966 17.966 0 01-5.984-.988 14.94 14.94 0 01-4.975-2.885 13.46 13.46 0 01-3.411-4.715c-.84-1.875-1.261-4.034-1.261-6.476 0-2.41.406-4.57 1.218-6.477a13.847 13.847 0 013.33-4.814 14.556 14.556 0 014.933-2.987 17.433 17.433 0 016.022-1.03c2.049 0 3.726.169 5.032.506 1.306.336 2.338.75 3.097 1.24.753.49 1.28.995 1.579 1.514.299.519.449.946.449 1.282 0 .363-.08.722-.236 1.051a4.342 4.342 0 01-.555.905 5.16 5.16 0 01-.662.694 2.991 2.991 0 01-.597.42 8.21 8.21 0 00-1.175-1.01 9.913 9.913 0 00-1.768-1.009 13.409 13.409 0 00-2.312-.777 11.534 11.534 0 00-2.777-.316 11.043 11.043 0 00-4.057.737 9.074 9.074 0 00-3.245 2.143 10.225 10.225 0 00-2.157 3.405c-.527 1.333-.79 2.84-.79 4.521 0 1.71.278 3.217.834 4.521a9.284 9.284 0 002.284 3.28 9.62 9.62 0 003.433 2.004c1.361.456 2.79.682 4.227.67 1.794 0 3.339-.224 4.633-.67 1.295-.447 2.242-.867 2.841-1.262l2.257 3.827h.042zm22.42 1.852c-.285.055-.733.117-1.345.188s-1.332.134-2.157.21c-.826.077-1.751.134-2.776.19a59.899 59.899 0 01-3.203.084c-2.22 0-4.034-.19-5.44-.568-1.406-.379-2.516-.883-3.331-1.514-.81-.63-1.365-1.36-1.664-2.187a7.418 7.418 0 01-.449-2.544 7.957 7.957 0 01.533-3.028 5.039 5.039 0 011.746-2.19c.816-.59 1.877-1.03 3.181-1.325 1.305-.295 2.899-.442 4.784-.442 1.081 0 2.106.035 3.074.106.969.07 1.694.133 2.176.188 0-.982-.164-1.795-.492-2.438a3.773 3.773 0 00-1.345-1.514 5.565 5.565 0 00-2.049-.758 15.447 15.447 0 00-2.639-.206c-1.623 0-2.925.183-3.907.548-.982.365-1.63.673-1.944.924a5.181 5.181 0 01-.704-.803 2.295 2.295 0 01-.449-1.43c.004-.407.115-.805.321-1.157.214-.379.591-.715 1.132-1.01.54-.293 1.265-.524 2.176-.693 1.142-.186 2.3-.27 3.458-.252a20.219 20.219 0 014.592.484c1.278.278 2.49.799 3.565 1.534a7.09 7.09 0 012.327 2.775c.555 1.151.833 2.539.833 4.164l-.004 12.663zm-4.826-9.336c-.285-.057-.819-.14-1.602-.253-.782-.113-1.956-.17-3.522-.17-1.937 0-3.346.288-4.228.863-.883.575-1.324 1.48-1.324 2.713-.008.477.085.949.272 1.388.206.443.54.816.961 1.071.453.294 1.072.517 1.857.67.966.17 1.945.247 2.926.231a25.919 25.919 0 003.117-.147c.77-.098 1.282-.175 1.538-.231l.005-6.135zm9.822-4.167c0-2.579.804-4.576 2.413-5.992 1.608-1.416 3.836-2.124 6.683-2.123 1.793 0 3.252.245 4.378.735 1.125.49 1.687 1.24 1.686 2.25-.005.49-.146.97-.408 1.387-.272.449-.491.73-.662.841-.58-.257-1.18-.468-1.794-.63a9.207 9.207 0 00-2.435-.295c-3.331 0-4.996 1.738-4.996 5.215V41.17h-4.868l.003-13.583z" fill="#CFCFCF"/></g><defs><clipPath id="clip0"><path fill="#fff" d="M0 0h272v53H0z"/></clipPath></defs></svg>