<svg width="1920" height="1140" fill="none" xmlns="http://www.w3.org/2000/svg"><path d="M.5 853L787-346H-786L.5 853z" fill="#FFF735"/><path d="M1775.85 795.032h-514.93l257.47-393.769 257.46 393.769z" fill="#fff" stroke="#000"/><path d="M1402.87 433.787l-124.63 191.512h249.27l-124.64-191.512zm151.01 75.672l-3.57 2.327 133.64 204.836 3.57-2.326-133.64-204.837z" fill="#313335"/><path d="M1535.15 514.764l-136.02 202.119 1.96 1.321 136.02-202.119-1.96-1.321zm-10.56-15.707l-136.02 202.119 1.96 1.321 136.03-202.119-1.97-1.321zm-9.88-15.863l-136 202.144 1.97 1.32 135.99-202.144-1.96-1.32zm-10.16-15.441l-136 202.143 1.96 1.321 136-202.144-1.96-1.32zm173.02 59.676l186.53-284.774h-373.07l186.54 284.774z" fill="#FFF735"/><path d="M1745.98 145l-39.76 60.814h79.53L1745.98 145zm112.45 24.126l-235.39 363.093 4.41 2.863 235.4-363.093-4.42-2.863z" fill="#313335"/><path d="M2046.08 1139.53l-357.06-559.214 279.34-404.786 364.66 565.063-286.94 398.937z" fill="#E9E9EB"/><path d="M1347.95 320.403h-87.03l43.52-66.49 43.51 66.49z" fill="#fff" stroke="#000"/><path d="M1260.31 293.546L1277.82 267H1243l17.31 26.546z" fill="#FFF735"/></svg>