<svg width="7" height="11" viewBox="0 0 7 11" fill="none" xmlns="http://www.w3.org/2000/svg">
<path fill-rule="evenodd" clip-rule="evenodd" d="M5.83417 6.0443L1.26898 10.7741C1.20298 10.8452 1.12203 10.902 1.03144 10.9409C0.940855 10.9798 0.842689 11 0.743393 11C0.644096 11 0.545921 10.9798 0.455333 10.9409C0.364744 10.902 0.283793 10.8452 0.217801 10.7741C0.0775207 10.6235 -2.49752e-08 10.4286 -3.37948e-08 10.2269C-4.26144e-08 10.0251 0.0775207 9.83048 0.217801 9.67988L4.2574 5.49986L0.2178 1.31419C0.0775801 1.1647 1.80193e-05 0.970924 1.80105e-05 0.770026C1.80017e-05 0.569127 0.0775801 0.375348 0.2178 0.225863C0.283847 0.154831 0.364851 0.0980091 0.455489 0.0590811C0.546127 0.020153 0.644343 9.25509e-07 0.743687 9.21167e-07C0.843031 9.16824e-07 0.941257 0.020153 1.03189 0.059081C1.12253 0.0980091 1.20354 0.154831 1.26958 0.225863L5.83417 4.95004C5.97478 5.1016 6.05227 5.29717 6.05191 5.49986C6.05326 5.70099 5.97553 5.89549 5.83417 6.0443Z" fill="#0A9153"/>
</svg>
