<svg width="35" height="33" viewBox="0 0 35 33" fill="none" xmlns="http://www.w3.org/2000/svg">
<path d="M17.5 7.61328C17.1227 7.61328 16.8164 7.91956 16.8164 8.29688C16.8164 8.67419 17.1227 8.98047 17.5 8.98047C17.8773 8.98047 18.1836 8.67419 18.1836 8.29688C18.1836 7.91956 17.8773 7.61328 17.5 7.61328Z" fill="white"/>
<path d="M6.15234 19.918C6.52966 19.918 6.83594 19.6117 6.83594 19.2344C6.83594 18.8571 6.52966 18.5508 6.15234 18.5508C5.77503 18.5508 5.46875 18.8571 5.46875 19.2344C5.46875 19.6117 5.77503 19.918 6.15234 19.918Z" fill="white"/>
<path d="M22.9688 0.777344C16.8145 0.777344 11.7634 5.02043 11.3728 10.365C5.51174 10.659 0 14.8853 0 20.6016C0 22.9904 0.945282 25.305 2.66602 27.139C3.00648 28.5425 2.59312 30.0301 1.56746 31.0557C1.37199 31.2512 1.31351 31.5452 1.41926 31.8008C1.525 32.056 1.77414 32.2227 2.05078 32.2227C4.00036 32.2227 5.87917 31.4582 7.2752 30.111C8.63518 30.5746 10.4096 30.8555 12.0312 30.8555C18.1847 30.8555 23.2352 26.6134 23.627 21.2699C25.0583 21.2064 26.5469 20.942 27.7248 20.5407C29.1208 21.8878 30.9996 22.6523 32.9492 22.6523C33.2259 22.6523 33.475 22.4857 33.5807 22.2304C33.6865 21.9749 33.628 21.6809 33.4325 21.4854C32.4069 20.4598 31.9935 18.9722 32.334 17.5686C34.0547 15.7347 35 13.4201 35 11.0312C35 5.09173 29.0637 0.777344 22.9688 0.777344ZM12.0312 29.4883C10.4179 29.4883 8.57937 29.1716 7.34783 28.6816C7.08401 28.5764 6.78253 28.6455 6.59054 28.8552C5.76515 29.7574 4.69196 30.3866 3.52264 30.6758C4.16698 29.4413 4.33147 27.986 3.93948 26.607C3.9085 26.4984 3.85109 26.399 3.77232 26.3181C2.22141 24.7207 1.36719 22.6905 1.36719 20.6016C1.36719 15.7844 6.25061 11.7148 12.0312 11.7148C17.4899 11.7148 22.2852 15.5107 22.2852 20.6016C22.2852 25.5018 17.6853 29.4883 12.0312 29.4883ZM31.2277 16.7478C31.1489 16.829 31.0915 16.9283 31.0605 17.0367C30.6685 18.4157 30.833 19.871 31.4774 21.1054C30.308 20.8165 29.2348 20.1871 28.4095 19.2848C28.2175 19.0755 27.916 19.0061 27.6522 19.1113C26.5849 19.5359 25.0623 19.8298 23.6248 19.9009C23.4251 17.3158 22.1356 14.8861 19.931 13.082H28.8477C29.2252 13.082 29.5312 12.776 29.5312 12.3984C29.5312 12.0209 29.2252 11.7148 28.8477 11.7148H17.8308C16.2791 10.925 14.5368 10.4643 12.7434 10.3677C13.1362 5.77639 17.5724 2.14453 22.9688 2.14453C28.7494 2.14453 33.6328 6.21405 33.6328 11.0312C33.6328 13.1202 32.7786 15.1504 31.2277 16.7478Z" fill="white"/>
<path d="M17.5 18.5508H8.88672C8.50914 18.5508 8.20312 18.8568 8.20312 19.2344C8.20312 19.612 8.50914 19.918 8.88672 19.918H17.5C17.8776 19.918 18.1836 19.612 18.1836 19.2344C18.1836 18.8568 17.8776 18.5508 17.5 18.5508Z" fill="white"/>
<path d="M17.5 22.6523H6.15234C5.77476 22.6523 5.46875 22.9584 5.46875 23.3359C5.46875 23.7135 5.77476 24.0195 6.15234 24.0195H17.5C17.8776 24.0195 18.1836 23.7135 18.1836 23.3359C18.1836 22.9584 17.8776 22.6523 17.5 22.6523Z" fill="white"/>
<path d="M28.8477 7.61328H20.2344C19.8568 7.61328 19.5508 7.9193 19.5508 8.29688C19.5508 8.67445 19.8568 8.98047 20.2344 8.98047H28.8477C29.2252 8.98047 29.5312 8.67445 29.5312 8.29688C29.5312 7.9193 29.2252 7.61328 28.8477 7.61328Z" fill="white"/>
</svg>
