<svg width="32" height="32" viewBox="0 0 32 32" fill="none" xmlns="http://www.w3.org/2000/svg">
<path d="M7.7395 29.7166C10.2119 31.2043 13.0388 31.9885 15.9434 31.9885C24.7449 31.9885 32 24.8064 32 15.9941C32 7.19214 24.7551 0 15.9434 0C7.15845 0 0.0114746 7.17505 0.0114746 15.9941C0.0114746 18.9375 0.795898 21.7859 2.28345 24.2603L0 32L7.7395 29.7166ZM1.88599 15.9941C1.88599 8.2085 8.19214 1.87427 15.9434 1.87427C23.7634 1.87427 30.1257 8.2085 30.1257 15.9941C30.1257 23.78 23.7634 30.114 15.9434 30.114C13.2524 30.114 10.6375 29.3518 8.38184 27.9094L8.02148 27.6792L2.77222 29.228L4.3208 23.9785L4.09058 23.6184C2.64819 21.3623 1.88599 18.7261 1.88599 15.9941Z" fill="white"/>
<path d="M7.23271 13.3315C7.56191 14.9743 8.53911 18.134 11.3843 20.8375C14.2294 23.541 17.5546 24.4699 19.2836 24.7827C21.2635 25.1409 24.1689 25.1949 25.5887 23.8457L26.3803 23.0935C26.7798 22.7139 27 22.2089 27 21.6718C27 21.1348 26.7798 20.63 26.3803 20.2504L23.2148 17.2424C22.815 16.8625 22.2838 16.6535 21.7186 16.6535C21.1534 16.6535 20.6222 16.8625 20.2224 17.2424L19.4311 17.9943C18.9477 18.4537 18.0351 18.4556 17.5481 18L14.3906 14.8739C14.386 14.8692 14.3813 14.8645 14.3763 14.86C13.8922 14.4 13.8922 13.6512 14.3763 13.1911L15.1677 12.4392C15.9948 11.6532 15.9948 10.3815 15.1677 9.59579L12.0021 6.58782C11.1773 5.80406 9.83512 5.80406 9.01005 6.58782L8.21874 7.33999V7.33975C7.08551 8.41682 6.70776 10.7126 7.23271 13.3315ZM9.6282 8.67931C10.459 7.90789 10.4146 7.89309 10.5062 7.89309C10.5376 7.89309 10.5691 7.90444 10.5929 7.92713C13.9285 11.1137 13.7945 10.9265 13.7945 11.0177C13.7945 11.0496 13.7823 11.0774 13.7587 11.1001L12.9671 11.8521C11.7067 13.0498 11.7018 14.9886 12.9591 16.1917L16.1184 19.3198C16.1233 19.3243 16.128 19.3289 16.1329 19.3336C17.3931 20.5311 19.5762 20.535 20.8406 19.3336L21.6319 18.5817C21.6797 18.5363 21.7575 18.5363 21.8053 18.5817C25.1409 21.768 25.0069 21.5808 25.0069 21.6721C25.0069 21.7041 24.9947 21.7318 24.9711 21.7545L24.1795 22.5064C23.6372 23.0217 21.9097 23.3301 19.6565 22.9223C18.1527 22.65 15.2614 21.8433 12.7937 19.4984C10.3261 17.1536 9.47711 14.4061 9.19075 12.9773C8.76134 10.8362 9.08586 9.19441 9.6282 8.67931Z" fill="white"/>
</svg>
