<svg width="25" height="23" viewBox="0 0 25 23" fill="none" xmlns="http://www.w3.org/2000/svg">
<path d="M23.0962 7.56399L16.6269 6.95592C16.2191 6.91907 15.8669 6.6611 15.7 6.27415L13.3829 0.690985C13.0122 -0.230328 11.6961 -0.230328 11.3254 0.690985L9.02682 6.27415C8.87853 6.6611 8.50779 6.91907 8.09999 6.95592L1.63068 7.56399C0.66677 7.65612 0.277499 8.85383 1.00043 9.49875L5.87558 13.7552C6.19071 14.0316 6.32046 14.437 6.22778 14.8424L4.76338 20.8125C4.54094 21.7522 5.56046 22.5261 6.41315 22.0286L11.8073 18.8777C12.1595 18.675 12.5859 18.675 12.9381 18.8777L18.3322 22.0286C19.1849 22.5261 20.2045 21.7706 19.982 20.8125L18.5362 14.8424C18.4435 14.437 18.5732 14.0316 18.8883 13.7552L23.7635 9.49875C24.4679 8.85383 24.0601 7.65612 23.0962 7.56399Z" fill="#FEC478"/>
</svg>
