<svg xmlns="http://www.w3.org/2000/svg" width="210" height="60" viewBox="0 0 210 60"><g><g><path fill="#131315" d="M30 0h150c16.569 0 30 13.431 30 30 0 16.568-13.431 30-30 30H30C13.431 60 0 46.568 0 30 0 13.43 13.431 0 30 0z"/></g><g><g><text fill="#fff" dominant-baseline="text-before-edge" font-family="'Lato','Lato-Regular'" font-size="8.21" font-style="none" font-weight="400" transform="translate(69 13)"><tspan style="line-height:17px;font-kerning:normal">D</tspan><tspan style="line-height:17px;font-kerning:normal">o</tspan><tspan style="line-height:17px;font-kerning:normal">w</tspan><tspan style="line-height:17px;font-kerning:normal">n</tspan><tspan style="line-height:17px;font-kerning:normal">l</tspan><tspan style="line-height:17px;font-kerning:normal">o</tspan><tspan style="line-height:17px;font-kerning:normal">a</tspan><tspan style="line-height:17px;font-kerning:normal">d</tspan><tspan style="line-height:17px;font-kerning:normal"> </tspan><tspan style="line-height:17px;font-kerning:normal">o</tspan><tspan style="line-height:17px;font-kerning:normal">n</tspan><tspan style="line-height:17px;font-kerning:normal"> </tspan><tspan style="line-height:17px;font-kerning:normal">t</tspan><tspan style="line-height:17px;font-kerning:normal">h</tspan><tspan style="line-height:17px;font-kerning:normal">e</tspan><tspan style="line-height:17px;font-kerning:normal"> </tspan><tspan style="line-height:15.05919px;font-kerning:normal" font-size="15.74">A</tspan><tspan style="line-height:15.05919px;font-kerning:normal" font-size="15.74">p</tspan><tspan style="line-height:15.05919px;font-kerning:normal" font-size="15.74">p</tspan><tspan style="line-height:15.05919px;font-kerning:normal" font-size="15.74"> S</tspan><tspan style="line-height:15.05919px;font-kerning:normal" font-size="15.74">t</tspan><tspan style="line-height:15.05919px;font-kerning:normal" font-size="15.74">o</tspan><tspan style="line-height:15.05919px;font-kerning:normal" font-size="15.74">r</tspan><tspan style="line-height:15.05919px;font-kerning:normal" font-size="15.74">e</tspan></text></g></g><g><path fill="#fff" d="M44.829 20.26c3.267 0 5.355 3.138 5.355 3.138s-3.186 1.717-3.186 5.445c0 4.425 4.003 5.713 4.003 5.713s-3.16 7.443-6.708 7.443c-1.995 0-2.129-1.14-4.78-1.14-2.302 0-3.079 1.14-4.833 1.14-3.347 0-7.671-7.255-7.671-13.156 0-6.129 4.378-8.583 7.122-8.583 2.41 0 3.415 1.408 5.356 1.408 1.633 0 2.919-1.408 5.342-1.408zm-.562-6.25c.482 3.005-2.263 6.72-5.543 6.599-.482-3.823 3.052-6.397 5.543-6.598z"/></g></g></svg>