<svg width="32" height="26" viewBox="0 0 32 26" fill="none" xmlns="http://www.w3.org/2000/svg">
<path fill-rule="evenodd" clip-rule="evenodd" d="M10.1554 12.1588C11.3644 12.7196 12.3074 13.5608 12.9845 14.6824C13.6615 15.8039 14 17.1294 14 18.6588C14 20.851 13.3472 22.6225 12.0415 23.9735C10.7357 25.3245 9.06737 26 7.03627 26C5.00517 26 3.3247 25.3118 1.99482 23.9353C0.664933 22.5588 0 20.8 0 18.6588C0 17.6392 0.120897 16.6196 0.362694 15.6C0.604492 14.5804 1.13644 13.051 1.95855 11.0118L6.1658 0H13.3471L10.1554 12.1588ZM28.1554 12.1588C29.3644 12.7196 30.3074 13.5608 30.9845 14.6824C31.6615 15.8039 32 17.1294 32 18.6588C32 20.851 31.3472 22.6225 30.0415 23.9735C28.7357 25.3245 27.0674 26 25.0363 26C23.0052 26 21.3247 25.3118 19.9948 23.9353C18.6649 22.5588 18 20.8 18 18.6588C18 17.6392 18.1209 16.6196 18.3627 15.6C18.6045 14.5804 19.1364 13.051 19.9585 11.0118L24.1658 0H31.3471L28.1554 12.1588Z" fill="#0077FF"/>
</svg>
