<svg width="169" height="40" fill="none" xmlns="http://www.w3.org/2000/svg"><path fill-rule="evenodd" clip-rule="evenodd" d="M40 20c0 11.046-8.954 20-20 20S0 31.046 0 20 8.954 0 20 0s20 8.954 20 20zm-10 0c0 5.523-4.477 10-10 10s-10-4.477-10-10 4.477-10 10-10 10 4.477 10 10z" fill="#FA7D61" fill-opacity=".25"/><path fill-rule="evenodd" clip-rule="evenodd" d="M70 20c0 11.046-8.954 20-20 20s-20-8.954-20-20S38.954 0 50 0s20 8.954 20 20zm-10 0c0 5.523-4.477 10-10 10s-10-4.477-10-10 4.477-10 10-10 10 4.477 10 10z" fill="#6347FB" fill-opacity=".5"/><path d="M35 33.23c3.112-3.526 5-8.158 5-13.23 0-5.072-1.888-9.704-5-13.23A19.924 19.924 0 0030 20c0 5.072 1.888 9.703 5 13.23z" fill="#6347FB"/><path d="M84.176 22.6c.096.928.408 1.624.936 2.088.544.448 1.184.672 1.92.672.72 0 1.256-.104 1.608-.312.352-.208.68-.536.984-.984.128-.208.248-.368.36-.48a.639.639 0 01.432-.168h1.824c.176 0 .328.064.456.192.144.128.208.28.192.456-.032.528-.264 1.12-.696 1.776-.432.656-1.088 1.224-1.968 1.704-.864.464-1.928.696-3.192.696-1.136 0-2.144-.248-3.024-.744a5.732 5.732 0 01-2.064-1.992 6.24 6.24 0 01-.888-2.76 13.185 13.185 0 01-.024-.96c0-.464.008-.792.024-.984.08-.992.368-1.904.864-2.736a5.614 5.614 0 012.088-2.016c.88-.512 1.888-.768 3.024-.768 1.264 0 2.328.24 3.192.72.88.464 1.536 1.024 1.968 1.68.432.656.664 1.248.696 1.776a.522.522 0 01-.192.456.623.623 0 01-.456.192h-1.824a.639.639 0 01-.432-.168 2.656 2.656 0 01-.36-.48c-.304-.448-.632-.776-.984-.984-.352-.208-.888-.312-1.608-.312-.736 0-1.376.232-1.92.696-.528.448-.84 1.136-.936 2.064-.016.16-.024.44-.024.84 0 .4.008.68.024.84zM98.1 10.96c.175 0 .328.064.456.192.127.128.192.28.192.456v1.872a.623.623 0 01-.193.456.623.623 0 01-.456.192h-2.064a.623.623 0 01-.456-.192.623.623 0 01-.191-.456v-1.872c0-.176.063-.328.191-.456a.623.623 0 01.457-.192H98.1zm.528 16.392a.623.623 0 01-.192.456.623.623 0 01-.457.192h-1.823a.623.623 0 01-.457-.192.623.623 0 01-.192-.456V16.168c0-.176.064-.328.192-.456a.623.623 0 01.457-.192h1.823c.177 0 .329.064.457.192.127.128.191.28.191.456v11.184zm9.133-8.952c-.96 0-1.656.216-2.088.648-.416.416-.624 1.104-.624 2.064v6.24a.623.623 0 01-.192.456.623.623 0 01-.456.192h-1.824a.623.623 0 01-.456-.192.623.623 0 01-.192-.456V16.168c0-.176.064-.328.192-.456a.623.623 0 01.456-.192h1.824c.176 0 .328.064.456.192s.192.28.192.456v.552c.432-.416.888-.72 1.368-.912.48-.192 1.088-.288 1.824-.288h1.08c.176 0 .328.064.456.192s.192.28.192.456v1.584a.623.623 0 01-.192.456.623.623 0 01-.456.192h-1.56zm6.532 4.2c.096.928.408 1.624.936 2.088.544.448 1.184.672 1.92.672.72 0 1.256-.104 1.608-.312.352-.208.68-.536.984-.984.128-.208.248-.368.36-.48a.639.639 0 01.432-.168h1.824c.176 0 .328.064.456.192.144.128.208.28.192.456-.032.528-.264 1.12-.696 1.776-.432.656-1.088 1.224-1.968 1.704-.864.464-1.928.696-3.192.696-1.136 0-2.144-.248-3.024-.744a5.732 5.732 0 01-2.064-1.992 6.24 6.24 0 01-.888-2.76 13.185 13.185 0 01-.024-.96c0-.464.008-.792.024-.984.08-.992.368-1.904.864-2.736a5.614 5.614 0 012.088-2.016c.88-.512 1.888-.768 3.024-.768 1.264 0 2.328.24 3.192.72.88.464 1.536 1.024 1.968 1.68.432.656.664 1.248.696 1.776a.522.522 0 01-.192.456.623.623 0 01-.456.192h-1.824a.639.639 0 01-.432-.168 2.656 2.656 0 01-.36-.48c-.304-.448-.632-.776-.984-.984-.352-.208-.888-.312-1.608-.312-.736 0-1.376.232-1.92.696-.528.448-.84 1.136-.936 2.064-.016.16-.024.44-.024.84 0 .4.008.68.024.84zm11.212-6.432c0-.176.064-.328.192-.456a.623.623 0 01.456-.192h1.824c.176 0 .328.064.456.192s.192.28.192.456v6.096c0 1.008.208 1.792.624 2.352.432.544 1.096.816 1.992.816.832 0 1.472-.28 1.92-.84.464-.576.696-1.352.696-2.328v-6.096c0-.176.064-.328.192-.456a.623.623 0 01.456-.192h1.824c.176 0 .328.064.456.192s.192.28.192.456v11.184a.623.623 0 01-.192.456.623.623 0 01-.456.192h-1.824a.623.623 0 01-.456-.192.623.623 0 01-.192-.456V26.8c-.928.96-2.04 1.44-3.336 1.44-1.808 0-3.096-.512-3.864-1.536-.768-1.04-1.152-2.4-1.152-4.08v-6.456zm17.912 11.184a.623.623 0 01-.192.456.623.623 0 01-.456.192h-1.824a.623.623 0 01-.456-.192.623.623 0 01-.192-.456V11.608c0-.176.064-.328.192-.456a.623.623 0 01.456-.192h1.824c.176 0 .328.064.456.192s.192.28.192.456v15.744zm8.437-12.072c1.648 0 2.952.432 3.912 1.296.976.864 1.464 2.104 1.464 3.72v7.056a.623.623 0 01-.192.456.623.623 0 01-.456.192h-1.824a.623.623 0 01-.456-.192.623.623 0 01-.192-.456v-.792c-.368.512-.88.92-1.536 1.224-.64.304-1.416.456-2.328.456-1.344 0-2.408-.344-3.192-1.032-.784-.704-1.176-1.608-1.176-2.712 0-1.072.376-1.92 1.128-2.544.768-.64 1.832-1.08 3.192-1.32l3.912-.672c0-.608-.208-1.056-.624-1.344-.4-.304-.944-.456-1.632-.456-.368 0-.672.056-.912.168a2.382 2.382 0 00-.672.456c-.24.224-.504.336-.792.336h-2.232a.606.606 0 01-.408-.144.485.485 0 01-.12-.384c.096-.496.344-1 .744-1.512.416-.512.992-.936 1.728-1.272.752-.352 1.64-.528 2.664-.528zm2.256 7.152l-3.264.576c-.64.112-1.112.28-1.416.504a1.007 1.007 0 00-.432.864c0 .32.16.568.48.744.336.16.752.24 1.248.24.704 0 1.312-.128 1.824-.384s.896-.584 1.152-.984c.272-.416.408-.856.408-1.32v-.24zm12.151-4.032c-.96 0-1.656.216-2.088.648-.416.416-.624 1.104-.624 2.064v6.24a.623.623 0 01-.192.456.623.623 0 01-.456.192h-1.824a.623.623 0 01-.456-.192.623.623 0 01-.192-.456V16.168c0-.176.064-.328.192-.456a.623.623 0 01.456-.192h1.824c.176 0 .328.064.456.192s.192.28.192.456v.552c.432-.416.888-.72 1.368-.912.48-.192 1.088-.288 1.824-.288h1.08c.176 0 .328.064.456.192s.192.28.192.456v1.584a.623.623 0 01-.192.456.623.623 0 01-.456.192h-1.56z" fill="#090B27"/></svg>