<svg width="137" height="362" fill="none" xmlns="http://www.w3.org/2000/svg"><g clip-path="url(#clip0)"><path d="M45.572 141.196s-7.711 25.874-9.814 41.259c0 0-42.06 56.643-34.349 81.118C9.12 288.049 31.552 337 31.552 337s37.854-15.385 45.565-23.776l-28.04-39.86s4.206-4.895-2.103-7.693c-6.31-2.797-.701-6.293-.701-6.293s11.917-39.86 23.834-44.056l41.358-8.392s-2.804-59.44-12.618-69.93c0 0-49.07.699-53.275 4.196z" fill="#2F2E41"/><path d="M69.465 210.879l9.71 84.607s-5.549 23.774-6.936 41.954c-1.387 18.18 0 17.48 0 17.48s31.21 12.586 36.758 4.196c5.549-8.391 2.775-151.733 2.775-151.733L95.126 192l-25.66 18.879zM51.32 20.735C58.57 3.642 77.023.415 77.023.415s17.768-4.737 32.606 17.821c13.83 21.027 31.665 40.727 9.047 49.12l-5.975-12.54-.717 14.43a92.126 92.126 0 01-9.957 1.51c-25.088 2.548-48.737 6.782-49.175-2.278-.582-12.045-8.505-31.297-1.53-47.743z" fill="#2F2E41"/><path d="M81.965 54c11.322 0 20.5-9.178 20.5-20.5S93.287 13 81.965 13s-20.5 9.178-20.5 20.5S70.643 54 81.965 54z" fill="#FFB8B8"/><path d="M75.028 47.378s-.355 20.33-2.481 25.154c-2.126 4.825 37.918-3.79 37.918-3.79S96.29 59.094 94.164 46l-19.136 1.378z" fill="#FFB8B8"/><path d="M78.369 64.815L74.52 62l-27.155 1.413-5.637 61.667S25.52 144 45.25 144s38.05-9.11 52.143-2.803c14.092 6.307 26.071-66.572 26.071-66.572L102.399 62s-9.233 11.224-24.03 2.815z" fill="#FF5753"/><path d="M55.329 114l39.136 8.444v9.149L55.33 133s-4.193-16.185 0-19z" fill="#FFB8B8"/><path d="M55.796 66.53L48.001 63s-9.213 2.118-9.921 9.882c-.71 7.765-14.174 57.883-3.544 60C45.166 135 59.34 135 59.34 135s-9.212-12.706 2.126-19.765L52.961 111s-8.503-19.059-2.834-28.941c5.669-9.882 5.669-15.53 5.669-15.53z" fill="#FF5753"/><path d="M55.36 14.936L74.15 5l25.947 4.064L105.465 33l-13.363-.519-3.734-8.793v8.648l-6.166-.24-3.58-14L76.387 33l-21.92-.452.894-17.612z" fill="#2F2E41"/><path d="M101.965 38c1.933 0 3.5-2.91 3.5-6.5s-1.567-6.5-3.5-6.5-3.5 2.91-3.5 6.5 1.567 6.5 3.5 6.5z" fill="#FFB8B8"/><path d="M101.965 37a2.5 2.5 0 100-5 2.5 2.5 0 000 5z" fill="#fff"/><path d="M102.965 35c.276 0 .5-.448.5-1s-.224-1-.5-1-.5.448-.5 1 .224 1 .5 1z" fill="#2F2E41"/><path d="M102.798 42a.666.666 0 01-.666-.667L101.465 36h2v5.333a.667.667 0 01-.667.667z" fill="#fff"/><path opacity=".1" d="M52.322 86l-6.857 28h16l-12.571-2.692L52.322 86z" fill="#000"/><path d="M132.141 133.06l-.148-.132 3.659-4.021a3.12 3.12 0 00.809-2.26 3.123 3.123 0 00-1.041-2.164l-8.601-7.677a3.181 3.181 0 00-4.468.229l-20.072 22.058a3.116 3.116 0 00-.81 2.26 3.124 3.124 0 001.042 2.164l8.601 7.677a3.18 3.18 0 004.467-.229l13.81-15.175.148.132 2.604-2.862z" fill="#3F3D56"/><path d="M125.465 129a2 2 0 10.001-3.999 2 2 0 00-.001 3.999z" fill="#E8BCD3"/><path d="M111.296 125s23.84 5.96 18.347 14.458c-5.492 8.498-27.178-7.034-27.178-7.034l8.831-7.424z" fill="#FFB8B8"/><path d="M117.326 74h6.328s7.032 7.724 5.625 14.746c-1.406 7.021-5.625 40.023-5.625 40.023s-21.094 19.661-31.642 9.128c-10.547-10.532-2.812-20.363-2.812-20.363s14.063 11.235 21.797-3.51L117.326 74z" fill="#FF5753"/><path d="M111.102 122.303l4.808-47.541s10.087-30.013.241-30.748c-9.846-.736-10.538 28.44-10.538 28.44l-17.148 52.022s9.41 9.223 22.637-2.173z" fill="#FFB8B8"/></g><defs><clipPath id="clip0"><path fill="#fff" d="M0 0h137v362H0z"/></clipPath></defs></svg>