<svg width="99" height="79" fill="none" xmlns="http://www.w3.org/2000/svg"><path d="M79.599 65.504l.063.02 18.36-55.018L42.992.71 26 49.62c-3.289-5.872-10.342-8.412-16.659-6C3.024 46.03-.695 52.685.556 59.335c1.251 6.65 7.105 11.336 13.825 11.07 6.72-.268 12.328-5.41 13.245-12.146l.047.016L45.908 5.788l46.28 8.237-14.515 43.493c-3.482-5.803-10.676-8.11-16.933-5.428-6.257 2.681-9.702 9.546-8.108 16.158 1.595 6.613 7.75 10.99 14.487 10.305 6.631-.675 11.871-6.055 12.455-12.725l.025-.324z" fill="#0F181F"/></svg>