<svg width="881" height="933" fill="none" xmlns="http://www.w3.org/2000/svg"><path opacity=".3" d="M91.948 378.343l1.001-4.008 95.127-351.294L19.184 65.116l.334 1.002 72.43 312.225zm93.124-352.296L91.948 369.994 21.52 66.786l163.552-40.74zm528.037 861.205l64.086-267.478h-1.335L512.842 638.14l1.335 1.67 198.932 247.442zm61.082-265.141l-62.417 260.466-195.26-242.434 257.677-18.032z" fill="#363636"/><path opacity=".3" d="M93.283 375.671L19.518 56.768l1.001 300.537 72.764 18.366zM21.521 75.134L90.613 373l-68.091-17.031-1.001-280.835zM881 688.563v-67.12l-13.017-21.705h-.668l-94.459 20.704L881 688.563zm-2.003-66.786v62.779l-100.801-63.113 88.785-19.702 12.016 20.036z" fill="#363636"/><path opacity=".3" d="M816.581 817.46L881 770.376v-84.484l-.334-.334-106.475-66.786.667 2.338 41.723 196.35zm62.416-48.086l-61.081 44.413-40.721-190.674 101.802 64.115v82.146zM881 625.451v-12.022l-18.692-19.368L881 625.451zm-2.003-11.354v4.007l-6.008-10.018 6.008 6.011zM866.314 933L881 909.291v-17.364L866.314 933zm12.683-24.377l-4.005 6.679 4.005-11.688v5.009zM506.834 322.242l123.164-169.636-.667-.668L477.795 0h-33.711l.333 1.336 62.417 320.906zm120.494-169.636L507.835 317.233 446.42 2.003h30.374l150.534 150.603zM881 180.656V85.152l-49.065 78.474L881 180.656zm-2.003-88.157v85.486l-44.058-15.361 44.058-70.125zM102.963 453.477l114.152-57.77-126.502-23.041 12.35 80.811zm107.81-56.768l-106.141 53.762-11.349-75.134 117.49 21.372z" fill="#363636"/><path opacity=".3" d="M547.222 420.418L508.17 318.569l-1.002.334-299.733 78.474 339.787 23.041zm-40.388-99.511l37.384 97.173-323.765-22.373 286.381-74.8zM185.74 26.38L230.132 0h-48.731l4.339 26.38zm37.049-24.376l-35.38 21.037-3.338-21.037h38.718zM-119 436.78l1.669-1.002 140.855-79.141L-119 267.478V436.78zm138.518-80.477l-136.515 76.804V271.151l136.515 85.152zm751.001 267.144l102.137-22.707-51.736-10.352-50.401 33.059zm92.123-22.707l-81.776 18.032 40.388-26.38 41.388 8.348z" fill="#363636"/><path opacity=".3" d="M775.526 622.445l47.397-30.721-276.702-173.31-1.336 1.67 230.641 202.361zm43.725-31.055l-43.391 28.384L555.9 426.763 819.251 591.39z" fill="#363636"/></svg>